<svg width="1673" height="837" viewBox="0 0 1673 837" fill="none" xmlns="http://www.w3.org/2000/svg">
<g clip-path="url(#clip0_150_7125)">
<path opacity="0.1" d="M909.29 492.709C1009.73 563.73 1059.04 613.751 1021.35 632.108C965.901 659.109 845.193 621.43 777.937 604.281C659.79 574.157 499.9 471.321 506.159 537.827C511.431 593.848 592.35 683.942 683.463 643.406C777.194 601.705 875.057 559.27 990.878 581.197C1098.04 601.484 1191.93 661.865 1216.46 680.81C1308.14 751.623 1052.64 841.721 929.236 772.562C771.939 684.412 661.431 514.79 599.508 409.788C537.586 304.785 405.932 119.653 225.836 85.7316C45.741 51.81 314.327 213.692 542.575 301.916C725.173 372.495 856.996 455.729 909.29 492.709Z" stroke="#D20000" stroke-opacity="0.5"/>
<path opacity="0.1375" d="M923.945 480.551C1028.33 549.205 1080.03 598.464 1042.17 618.899C986.466 648.961 862.4 615.388 793.386 600.629C672.15 574.704 506.27 475.908 514.585 543.909C521.589 601.189 606.648 690.245 698.284 644.785C792.555 598.017 891.012 550.321 1009.64 567.929C1119.4 584.223 1216.8 642.231 1242.34 660.64C1337.81 729.45 1080.15 832.733 952.421 766.965C789.61 683.133 672.091 513.698 605.95 408.535C539.809 303.373 400.295 118.909 215.84 91.7056C31.3848 64.5021 309.716 219.31 544.807 300.216C732.878 364.943 869.595 444.804 923.945 480.551Z" stroke="#FF0000" stroke-opacity="0.5"/>
<path opacity="0.175" d="M938.137 468.054C1046.43 534.151 1100.51 582.541 1062.58 605.09C1006.78 638.258 879.494 608.982 808.808 596.716C684.635 575.169 512.856 480.708 523.338 550.139C532.167 608.624 621.392 696.46 713.316 645.99C807.884 594.069 906.686 541.021 1027.96 554.143C1140.17 566.284 1241.04 621.747 1267.57 639.573C1366.79 706.2 1107.58 822.923 975.625 760.767C807.414 681.533 682.764 512.57 612.318 407.418C541.871 302.265 394.386 118.798 205.826 98.575C17.265 78.3522 305.168 225.599 546.865 298.818C740.221 357.392 881.753 433.64 938.137 468.054Z" stroke="#FF0000" stroke-opacity="0.5"/>
<path opacity="0.2125" d="M951.847 455.241C1063.99 518.588 1120.46 566.002 1082.56 590.692C1026.8 627.013 896.459 602.215 824.193 592.539C697.242 575.544 519.667 485.711 532.427 556.503C543.175 616.133 636.581 702.565 728.555 647.012C823.173 589.862 922.062 531.382 1045.8 539.857C1160.3 547.695 1264.58 600.438 1292.11 617.634C1395.03 681.902 1134.92 812.293 998.823 753.96C825.338 679.602 693.446 511.408 618.617 406.441C543.786 301.473 388.233 119.34 195.832 106.351C3.43233 93.362 300.715 232.566 548.762 297.732C747.199 349.864 893.458 422.257 951.847 455.241Z" stroke="#DE0000" stroke-opacity="0.5"/>
<path opacity="0.25" d="M965.061 442.125C1080.99 502.535 1139.84 548.864 1102.08 575.72C1046.53 615.225 913.277 595.087 839.525 588.1C709.967 575.823 526.713 490.91 541.859 562.985C554.616 623.696 652.213 708.537 743.991 647.839C838.407 585.395 937.123 521.415 1063.16 525.082C1179.78 528.474 1287.39 578.33 1315.9 594.844C1422.49 656.57 1162.11 800.832 1021.99 746.541C843.366 677.33 704.138 510.209 624.852 405.608C545.566 301.006 381.858 120.552 185.898 115.04C-10.0627 109.528 296.383 240.21 550.509 296.968C753.808 342.374 904.696 410.674 965.061 442.125Z" stroke="#FB0000" stroke-opacity="0.5"/>
<path opacity="0.2875" d="M977.754 428.734C1097.41 486.013 1158.63 531.149 1121.11 560.191C1065.92 602.91 929.933 587.604 854.797 583.393C722.807 575.998 534.006 496.295 551.642 569.57C566.497 631.293 668.286 714.353 759.618 648.457C853.576 580.667 951.855 511.129 1080 509.841C1198.56 508.649 1309.43 555.444 1338.92 571.229C1449.12 630.235 1189.13 788.544 1045.09 738.501C861.485 674.708 714.837 508.972 631.031 404.922C547.225 300.874 375.293 122.451 176.063 124.647C-23.1659 126.844 292.205 248.531 552.119 296.537C760.05 334.94 915.456 398.91 977.754 428.734Z" stroke="#FF0000" stroke-opacity="0.5"/>
<path opacity="0.325" d="M989.919 415.086C1113.21 469.049 1176.81 512.88 1139.63 544.122C1084.95 590.08 946.409 579.769 869.995 578.425C735.759 576.064 541.553 501.856 561.78 576.243C578.82 638.904 684.795 719.991 775.429 648.858C868.669 575.679 966.24 500.539 1096.29 494.155C1216.63 488.245 1330.67 531.814 1361.1 546.824C1474.86 602.93 1215.93 775.427 1068.11 729.841C879.68 671.731 725.542 507.698 637.158 404.392C548.776 301.086 368.566 125.053 166.369 135.18C-35.8266 145.307 288.209 257.533 553.607 296.448C765.924 327.581 925.726 386.988 989.919 415.086Z" stroke="#FF0000" stroke-opacity="0.5"/>
<path opacity="0.3625" d="M1001.55 401.201C1128.38 451.668 1194.33 494.075 1157.61 527.53C1103.6 576.74 962.69 571.587 885.107 573.193C748.818 576.014 549.364 507.584 572.283 582.989C591.59 646.507 701.735 725.429 791.415 649.028C883.673 570.433 980.266 489.656 1112.03 478.04C1233.95 467.29 1351.07 507.467 1382.43 521.654C1499.67 574.683 1242.47 761.478 1091.01 720.557C897.938 668.388 736.25 506.386 643.242 404.019C550.234 301.651 361.705 128.374 156.856 146.64C-47.9919 164.906 284.427 267.21 554.985 296.712C771.432 320.314 935.499 374.927 1001.55 401.201Z" stroke="#FF0000" stroke-opacity="0.5"/>
<path opacity="0.4" d="M1012.61 387.107C1142.91 433.886 1211.18 474.767 1175.02 510.438C1121.85 562.906 978.758 563.063 900.121 567.7C761.98 575.843 557.448 513.467 583.155 589.792C604.808 654.084 719.1 730.644 807.567 648.961C898.577 564.927 993.914 478.496 1127.18 461.521C1250.48 445.813 1370.59 482.434 1402.86 495.752C1523.5 545.53 1268.73 746.711 1113.77 710.645C916.241 664.675 746.961 505.034 649.286 403.806C551.612 302.579 354.739 132.427 147.565 159.028C-59.61 185.629 280.89 277.563 556.27 297.337C776.575 313.158 944.761 362.751 1012.61 387.107Z" stroke="#EC0000" stroke-opacity="0.5"/>
<path opacity="0.4375" d="M1023.1 372.822C1156.75 415.737 1227.31 454.98 1191.85 492.863C1139.67 548.592 994.602 554.203 915.026 561.945C775.24 575.543 565.813 519.494 594.399 596.633C618.477 661.612 736.883 735.617 823.875 648.642C913.369 559.167 1007.17 467.073 1141.72 444.622C1266.21 423.849 1389.19 456.753 1422.35 469.152C1546.31 515.502 1294.66 731.115 1136.35 700.111C934.575 660.586 757.674 503.642 655.299 403.758C552.926 303.873 347.703 137.224 138.536 172.344C-70.6291 207.464 277.626 288.584 557.475 298.332C781.355 306.13 953.517 350.478 1023.1 372.822Z" stroke="#FF0000" stroke-opacity="0.5"/>
<path opacity="0.475" d="M1033.01 358.376C1169.9 397.246 1242.73 434.736 1208.05 474.831C1157.03 533.81 1010.19 545.018 929.81 555.933C788.595 575.111 574.468 525.656 606.019 603.499C632.597 669.07 755.076 740.324 840.332 648.065C928.038 553.154 1020.02 455.401 1155.63 427.363C1281.11 401.42 1406.85 430.453 1440.87 441.89C1568.05 484.641 1320.22 714.717 1158.75 688.95C952.922 656.115 768.385 502.211 661.287 403.877C554.191 305.542 340.625 142.777 129.814 186.586C-80.9972 230.395 274.668 300.27 558.617 299.701C785.777 299.247 961.744 338.135 1033.01 358.376Z" stroke="#FF0000" stroke-opacity="0.5"/>
<path opacity="0.5125" d="M1042.34 343.786C1182.35 378.439 1257.4 414.067 1223.62 456.36C1173.93 518.577 1025.53 535.509 944.461 549.666C802.037 574.538 583.419 531.939 618.022 610.37C647.169 676.437 773.67 744.743 856.924 647.219C942.572 546.89 1032.45 443.496 1168.9 409.772C1295.15 378.568 1423.53 403.571 1458.39 414.001C1588.69 452.985 1345.39 697.5 1180.92 677.17C971.269 651.256 779.094 500.74 667.259 404.167C555.425 307.593 333.54 149.095 121.438 201.749C-90.663 254.402 272.047 312.613 559.712 301.455C789.845 292.529 969.439 325.745 1042.34 343.786Z" stroke="#FF0000" stroke-opacity="0.5"/>
<path opacity="0.55" d="M1051.06 329.084C1194.05 359.348 1271.29 393.001 1238.52 437.481C1190.32 502.912 1040.6 525.686 958.966 543.147C815.561 573.82 592.673 538.331 630.404 617.231C662.187 683.692 792.654 748.855 873.641 646.094C956.957 540.379 1044.46 431.373 1181.51 391.87C1308.31 355.321 1439.2 376.152 1474.86 385.526C1608.16 420.577 1370.11 679.492 1202.82 664.773C989.595 646.008 789.798 499.228 673.22 404.63C556.642 310.03 326.479 156.186 113.451 217.826C-99.5772 279.467 269.791 325.604 560.774 303.598C793.562 285.992 976.606 313.327 1051.06 329.084Z" stroke="#FF0000" stroke-opacity="0.5"/>
<path opacity="0.5875" d="M1059.17 314.292C1205 340.001 1284.39 371.567 1252.75 418.211C1206.19 486.828 1055.37 515.561 973.316 536.38C829.164 572.953 602.239 544.821 643.173 624.064C677.655 690.814 812.018 752.638 890.474 644.683C971.186 533.624 1056.02 419.051 1193.44 373.687C1320.58 331.716 1453.82 348.228 1490.27 356.506C1626.46 387.456 1394.35 660.701 1224.45 651.761C1007.89 640.365 800.496 497.675 679.178 405.266C557.861 312.858 319.478 164.056 105.895 234.811C-107.687 305.566 267.931 339.235 561.823 306.134C796.936 279.653 983.236 300.906 1059.17 314.292Z" stroke="#FF0000" stroke-opacity="0.5"/>
<path opacity="0.625" d="M1066.65 299.439C1215.2 320.427 1296.66 349.802 1266.26 398.583C1221.53 470.346 1069.84 505.142 987.5 529.368C842.835 571.93 612.118 551.395 656.326 630.851C693.563 697.782 831.748 756.072 907.408 642.978C985.243 526.632 1067.13 406.547 1204.66 355.251C1331.91 307.789 1467.39 319.841 1504.57 326.981C1643.53 353.671 1418.09 641.135 1245.77 638.141C1026.13 634.326 811.186 496.08 685.141 406.081C559.097 316.081 312.568 172.712 98.8113 252.695C-114.947 332.676 266.497 353.496 562.872 309.071C799.973 273.531 989.314 288.511 1066.65 299.439Z" stroke="#FF0000" stroke-opacity="0.5"/>
<path opacity="0.6625" d="M1073.53 284.547C1224.62 300.658 1308.11 327.731 1279.05 378.624C1236.3 453.487 1084 494.438 1001.5 522.119C856.571 570.749 622.321 558.041 669.865 637.577C709.913 704.574 851.834 759.139 924.434 640.971C999.124 519.405 1077.78 393.881 1215.18 336.588C1342.3 283.582 1479.85 291.036 1517.74 296.995C1659.34 319.269 1441.26 620.814 1266.75 623.925C1044.29 627.891 821.866 494.445 691.116 407.074C560.367 319.704 305.787 182.161 92.241 271.464C-121.304 360.768 265.521 368.372 563.942 312.412C802.68 267.643 994.858 276.159 1073.53 284.547Z" stroke="#FF0000" stroke-opacity="0.5"/>
<path opacity="0.7" d="M1079.77 269.648C1233.24 280.73 1318.7 305.392 1291.1 358.359C1250.5 436.27 1097.81 483.463 1015.31 514.638C870.366 569.403 632.85 564.745 683.789 644.223C726.697 711.17 872.26 761.816 941.537 638.655C1012.81 511.952 1087.95 381.068 1224.97 317.729C1351.74 259.126 1491.21 261.854 1529.76 266.591C1673.85 284.298 1463.87 599.749 1287.36 609.115C1062.37 621.056 832.534 492.769 697.112 408.248C561.69 323.727 299.167 192.4 86.2271 291.108C-126.713 389.815 265.029 383.852 565.049 316.16C805.066 262.006 999.855 263.878 1079.77 269.648Z" stroke="#FF0000" stroke-opacity="0.5"/>
<path opacity="0.7375" d="M1085.38 254.763C1241.07 260.667 1328.43 282.82 1302.39 337.815C1264.09 418.717 1111.29 472.224 1028.91 506.928C884.213 567.888 643.711 571.492 698.098 650.769C743.911 717.547 893.013 764.086 958.705 636.023C1026.29 504.275 1097.64 368.129 1234.02 298.699C1360.2 234.465 1501.42 232.339 1540.6 235.815C1687.03 248.808 1485.84 577.962 1307.57 593.725C1080.34 613.82 843.19 491.05 703.137 409.601C563.083 328.154 292.747 203.433 80.8101 311.608C-131.126 419.783 265.052 399.919 566.212 320.316C807.139 256.634 1004.3 251.692 1085.38 254.763Z" stroke="#FF0000" stroke-opacity="0.5"/>
<path opacity="0.775" d="M1090.34 239.927C1248.08 240.511 1337.26 260.048 1312.9 317.029C1277.07 400.85 1124.4 460.738 1042.3 498.997C898.103 566.202 654.906 578.272 712.788 657.202C761.544 723.689 914.075 765.933 975.925 633.069C1039.55 496.385 1106.84 355.08 1242.32 279.533C1367.66 209.637 1510.47 202.54 1550.24 204.714C1698.86 212.85 1507.15 555.472 1327.37 577.766C1098.19 606.186 853.83 489.292 709.196 411.138C564.563 332.985 286.558 215.26 76.0298 332.951C-134.499 450.642 265.618 416.559 567.446 324.885C808.909 251.547 1008.21 239.625 1090.34 239.927Z" stroke="#E04E4E"/>
<path opacity="0.8125" d="M1094.68 225.161C1254.28 220.288 1345.2 237.109 1322.62 296.026C1289.41 382.689 1137.13 449.017 1055.48 490.85C912.029 564.339 666.439 585.068 727.857 663.501C779.592 729.569 935.431 767.336 993.183 629.788C1052.6 488.283 1115.54 341.946 1249.86 260.259C1374.13 184.68 1518.34 172.5 1558.64 173.339C1709.29 176.481 1527.79 532.295 1346.71 561.248C1115.89 598.152 864.452 487.492 715.301 412.856C566.15 338.221 280.638 227.879 71.9266 355.116C-136.785 482.354 266.754 433.752 568.772 329.865C810.387 246.757 1011.58 227.698 1094.68 225.161Z" stroke="#FF0000" stroke-opacity="0.5"/>
<path opacity="0.85" d="M1098.37 210.499C1259.63 200.042 1352.22 214.047 1331.54 274.838C1301.1 364.267 1149.48 437.074 1068.41 482.497C925.986 562.297 678.314 591.867 743.303 669.651C798.046 735.172 957.063 768.28 1010.46 626.175C1065.4 479.985 1123.74 328.745 1256.63 240.908C1379.58 159.642 1525.01 142.269 1565.81 141.736C1718.32 139.75 1547.7 508.459 1365.58 544.185C1133.45 589.723 875.056 485.653 721.459 414.757C567.861 343.862 275.025 241.286 68.5421 378.084C-137.94 514.882 268.49 451.483 570.209 335.26C811.585 242.282 1014.41 215.943 1098.37 210.499Z" stroke="#EA5353" stroke-opacity="0.5"/>
<path opacity="0.8875" d="M1101.43 195.963C1264.17 179.797 1358.33 190.892 1339.63 253.5C1312.13 345.601 1161.43 424.922 1081.1 473.947C939.965 560.072 690.532 598.654 759.119 675.634C816.895 740.477 978.953 768.749 1027.76 622.225C1077.97 471.488 1131.42 315.5 1262.62 221.515C1384 134.56 1530.47 111.894 1571.72 109.957C1725.9 102.718 1566.84 483.989 1383.94 526.594C1150.82 580.903 885.639 483.773 727.677 416.839C569.714 349.905 269.752 255.477 65.9131 401.832C-137.925 548.187 270.85 469.729 571.774 341.066C812.513 238.136 1016.7 204.38 1101.43 195.963Z" stroke="#FF0000" stroke-opacity="0.5"/>
<path opacity="0.925" d="M1103.86 181.582C1267.85 159.595 1363.5 167.686 1346.9 232.043C1322.47 326.716 1172.99 412.572 1093.53 465.206C953.958 557.662 703.093 605.414 775.303 681.43C836.127 745.462 1001.08 768.725 1045.04 617.935C1090.27 462.812 1138.59 302.225 1267.83 202.106C1387.39 109.478 1534.7 81.4255 1576.35 78.0519C1732.03 65.4395 1585.19 458.903 1401.78 508.488C1167.98 571.693 896.198 481.853 733.963 419.102C571.728 356.349 264.855 270.443 64.0788 426.335C-136.696 582.228 273.861 488.471 573.485 347.283C813.184 234.333 1018.46 193.031 1103.86 181.582Z" stroke="#F55757" stroke-opacity="0.5"/>
<path opacity="0.9625" d="M1105.64 167.388C1270.69 139.472 1367.74 144.461 1353.32 210.5C1332.12 307.643 1184.11 400.047 1105.7 456.28C967.957 555.064 716 612.134 791.845 687.025C855.733 750.11 1023.43 768.195 1062.31 613.301C1102.32 453.954 1145.24 288.948 1272.24 182.72C1389.74 84.4364 1537.69 50.9171 1579.69 46.0739C1736.67 27.9772 1602.73 433.232 1419.07 489.883C1184.94 562.097 906.734 479.895 740.327 421.543C573.921 363.192 260.371 286.178 63.0775 451.57C-134.217 616.96 277.55 507.684 575.362 353.909C813.613 230.889 1019.7 181.923 1105.64 167.388Z" stroke="#FF0000" stroke-opacity="0.5"/>
<path d="M1106.8 153.406C1272.69 119.459 1371.02 121.267 1358.9 188.905C1341.07 288.404 1194.8 387.36 1117.59 447.183C981.953 552.278 729.254 618.798 808.744 692.401C875.702 754.402 1045.97 767.145 1079.55 608.322C1114.08 444.932 1151.37 275.689 1275.86 163.388C1391.05 59.4835 1539.43 20.4135 1581.73 14.0743C1739.83 -9.6174 1619.42 407.007 1435.77 470.801C1201.67 552.12 917.242 477.898 746.776 424.164C576.311 370.429 256.337 302.673 62.945 477.506C-130.447 652.339 281.94 527.347 577.424 360.941C813.812 227.816 1020.43 171.081 1106.8 153.406Z" stroke="#FF0000" stroke-opacity="0.5"/>
</g>
<defs>
<clipPath id="clip0_150_7125">
<rect width="1673" height="837" fill="white"/>
</clipPath>
</defs>
</svg>
