<svg width="57" height="87" viewBox="0 0 57 87" fill="none" xmlns="http://www.w3.org/2000/svg">
<path d="M52.7425 86.9327H4.41554C2.24581 86.9327 0.480103 85.2053 0.480103 83.0812V4.16154C0.480103 2.03748 2.24581 0.310059 4.41554 0.310059H52.7425C54.9122 0.310059 56.6779 2.03748 56.6779 4.16154V83.0812C56.6793 85.2053 54.9122 86.9327 52.7425 86.9327ZM4.41554 1.67777C3.01612 1.67777 1.87813 2.79109 1.87813 4.16154V83.0812C1.87813 84.4503 3.01612 85.565 4.41554 85.565H52.7425C54.1419 85.565 55.2799 84.4517 55.2799 83.0812V4.16154C55.2799 2.79246 54.1419 1.67777 52.7425 1.67777H4.41554Z" fill="#121212"/>
<path d="M22.8375 23.7158H10.0623C8.45321 23.7158 7.14465 22.4356 7.14465 20.8613V8.3632C7.14465 6.78896 8.45461 5.50879 10.0623 5.50879H22.8375C24.4466 5.50879 25.7552 6.79033 25.7552 8.3632V20.8613C25.7552 22.4356 24.4452 23.7158 22.8375 23.7158ZM10.0609 6.87513C9.22212 6.87513 8.54129 7.54256 8.54129 8.36182V20.86C8.54129 21.6792 9.22351 22.3467 10.0609 22.3467H22.8361C23.6749 22.3467 24.3557 21.6792 24.3557 20.86V8.36182C24.3557 7.5412 23.6735 6.87513 22.8361 6.87513H10.0609Z" fill="#121212"/>
<path d="M47.0985 23.7158H34.322C32.7128 23.7158 31.4043 22.4356 31.4043 20.8613V8.3632C31.4043 6.78896 32.7128 5.50879 34.322 5.50879H47.0985C48.7076 5.50879 50.0162 6.79033 50.0162 8.3632V20.8613C50.0148 22.4356 48.7062 23.7158 47.0985 23.7158ZM34.322 6.87513C33.4845 6.87513 32.8023 7.54256 32.8023 8.36182V20.86C32.8023 21.6792 33.4845 22.3467 34.322 22.3467H47.0985C47.9359 22.3467 48.6182 21.6792 48.6182 20.86V8.36182C48.6182 7.5412 47.9359 6.87513 47.0985 6.87513H34.322Z" fill="#121212"/>
<path d="M55.9802 27.0625H1.17908V28.4302H55.9802V27.0625Z" fill="#121212"/>
</svg>
