<svg width="46" height="43" viewBox="0 0 46 43" fill="none" xmlns="http://www.w3.org/2000/svg">
<path d="M44.8094 40.8556C44.4235 40.8556 44.1104 40.5492 44.1104 40.1718V36.0686C44.1104 35.6911 44.4235 35.3848 44.8094 35.3848C45.1952 35.3848 45.5084 35.6911 45.5084 36.0686V40.1718C45.5084 40.5492 45.1952 40.8556 44.8094 40.8556ZM44.8094 32.6493C44.4235 32.6493 44.1104 32.343 44.1104 31.9655V27.8624C44.1104 27.4849 44.4235 27.1785 44.8094 27.1785C45.1952 27.1785 45.5084 27.4849 45.5084 27.8624V31.9655C45.5084 32.343 45.1952 32.6493 44.8094 32.6493ZM44.8094 24.4431C44.4235 24.4431 44.1104 24.1367 44.1104 23.7592V19.6547C44.1104 19.2773 44.4235 18.9709 44.8094 18.9709C45.1952 18.9709 45.5084 19.2773 45.5084 19.6547V23.7592C45.5084 24.1367 45.1952 24.4431 44.8094 24.4431ZM44.8094 16.2355C44.4235 16.2355 44.1104 15.9291 44.1104 15.5516V11.4485C44.1104 11.071 44.4235 10.7646 44.8094 10.7646C45.1952 10.7646 45.5084 11.071 45.5084 11.4485V15.5516C45.5084 15.9305 45.1952 16.2355 44.8094 16.2355ZM44.8094 8.02919C44.4235 8.02919 44.1104 7.72283 44.1104 7.34534V3.24221C44.1104 2.86472 44.4235 2.55835 44.8094 2.55835C45.1952 2.55835 45.5084 2.86472 45.5084 3.24221V7.34534C45.5084 7.72419 45.1952 8.02919 44.8094 8.02919Z" fill="#121212"/>
<path d="M40.5493 42.8647C0.934849 42.8647 0.241419 1.34516 0.240021 0.925272L0.23584 0.237305H40.5493V1.60502H1.65483C1.86594 7.11826 4.63123 41.497 40.5493 41.497V42.8647Z" fill="#121212"/>
</svg>
