<svg width="75" height="146" viewBox="0 0 75 146" fill="none" xmlns="http://www.w3.org/2000/svg">
<path d="M74.2671 145.83H69.7235C69.5306 145.83 69.374 145.676 69.374 145.488C69.374 145.299 69.5306 145.146 69.7235 145.146H73.568V141.421C73.568 141.233 73.7246 141.08 73.9176 141.08C74.1105 141.08 74.2671 141.233 74.2671 141.421V145.83ZM65.5294 145.83H61.3353C61.1424 145.83 60.9858 145.676 60.9858 145.488C60.9858 145.299 61.1424 145.146 61.3353 145.146H65.5294C65.7223 145.146 65.8789 145.299 65.8789 145.488C65.8789 145.676 65.7223 145.83 65.5294 145.83ZM57.1413 145.83H52.9472C52.7543 145.83 52.5977 145.676 52.5977 145.488C52.5977 145.299 52.7543 145.146 52.9472 145.146H57.1413C57.3342 145.146 57.4908 145.299 57.4908 145.488C57.4908 145.676 57.3342 145.83 57.1413 145.83ZM48.7531 145.83H44.559C44.3661 145.83 44.2095 145.676 44.2095 145.488C44.2095 145.299 44.3661 145.146 44.559 145.146H48.7531C48.946 145.146 49.1026 145.299 49.1026 145.488C49.1026 145.676 48.946 145.83 48.7531 145.83ZM40.365 145.83H36.1709C35.978 145.83 35.8214 145.676 35.8214 145.488C35.8214 145.299 35.978 145.146 36.1709 145.146H40.365C40.5579 145.146 40.7145 145.299 40.7145 145.488C40.7145 145.676 40.5579 145.83 40.365 145.83ZM31.9768 145.83H27.7827C27.5898 145.83 27.4332 145.676 27.4332 145.488C27.4332 145.299 27.5898 145.146 27.7827 145.146H31.9768C32.1697 145.146 32.3263 145.299 32.3263 145.488C32.3263 145.676 32.1697 145.83 31.9768 145.83ZM23.5887 145.83H19.3946C19.2017 145.83 19.0451 145.676 19.0451 145.488C19.0451 145.299 19.2017 145.146 19.3946 145.146H23.5887C23.7816 145.146 23.9382 145.299 23.9382 145.488C23.9382 145.676 23.7816 145.83 23.5887 145.83ZM15.2005 145.83H11.0064C10.8135 145.83 10.6569 145.676 10.6569 145.488C10.6569 145.299 10.8135 145.146 11.0064 145.146H15.2005C15.3934 145.146 15.55 145.299 15.55 145.488C15.55 145.676 15.3934 145.83 15.2005 145.83ZM6.81237 145.83H2.61828C2.42536 145.83 2.26878 145.676 2.26878 145.488C2.26878 145.299 2.42536 145.146 2.61828 145.146H6.81237C7.0053 145.146 7.16188 145.299 7.16188 145.488C7.16188 145.676 7.0053 145.83 6.81237 145.83ZM1.24123 143.074C1.0483 143.074 0.891724 142.92 0.891724 142.732V138.629C0.891724 138.44 1.0483 138.287 1.24123 138.287C1.43416 138.287 1.59074 138.44 1.59074 138.629V142.732C1.59074 142.92 1.43416 143.074 1.24123 143.074ZM73.9176 137.662C73.7246 137.662 73.568 137.508 73.568 137.32V133.217C73.568 133.028 73.7246 132.875 73.9176 132.875C74.1105 132.875 74.2671 133.028 74.2671 133.217V137.32C74.2671 137.508 74.1105 137.662 73.9176 137.662ZM1.24123 134.867C1.0483 134.867 0.891724 134.714 0.891724 134.525V130.422C0.891724 130.234 1.0483 130.08 1.24123 130.08C1.43416 130.08 1.59074 130.234 1.59074 130.422V134.525C1.59074 134.714 1.43416 134.867 1.24123 134.867ZM73.9176 129.455C73.7246 129.455 73.568 129.302 73.568 129.113V125.01C73.568 124.822 73.7246 124.668 73.9176 124.668C74.1105 124.668 74.2671 124.822 74.2671 125.01V129.113C74.2671 129.302 74.1105 129.455 73.9176 129.455ZM1.24123 126.661C1.0483 126.661 0.891724 126.508 0.891724 126.319V122.216C0.891724 122.027 1.0483 121.874 1.24123 121.874C1.43416 121.874 1.59074 122.027 1.59074 122.216V126.319C1.59074 126.508 1.43416 126.661 1.24123 126.661ZM73.9176 121.249C73.7246 121.249 73.568 121.096 73.568 120.907V116.804C73.568 116.615 73.7246 116.462 73.9176 116.462C74.1105 116.462 74.2671 116.615 74.2671 116.804V120.907C74.2671 121.096 74.1105 121.249 73.9176 121.249ZM1.24123 118.455C1.0483 118.455 0.891724 118.302 0.891724 118.113V114.01C0.891724 113.821 1.0483 113.668 1.24123 113.668C1.43416 113.668 1.59074 113.821 1.59074 114.01V118.113C1.59074 118.302 1.43416 118.455 1.24123 118.455ZM73.9176 113.043C73.7246 113.043 73.568 112.89 73.568 112.701V108.598C73.568 108.409 73.7246 108.256 73.9176 108.256C74.1105 108.256 74.2671 108.409 74.2671 108.598V112.701C74.2671 112.89 74.1105 113.043 73.9176 113.043ZM1.24123 110.249C1.0483 110.249 0.891724 110.095 0.891724 109.907V105.804C0.891724 105.615 1.0483 105.462 1.24123 105.462C1.43416 105.462 1.59074 105.615 1.59074 105.804V109.907C1.59074 110.095 1.43416 110.249 1.24123 110.249ZM73.9176 104.837C73.7246 104.837 73.568 104.683 73.568 104.495V100.391C73.568 100.203 73.7246 100.05 73.9176 100.05C74.1105 100.05 74.2671 100.203 74.2671 100.391V104.495C74.2671 104.683 74.1105 104.837 73.9176 104.837ZM1.24123 102.042C1.0483 102.042 0.891724 101.889 0.891724 101.7V97.5972C0.891724 97.4085 1.0483 97.2553 1.24123 97.2553C1.43416 97.2553 1.59074 97.4085 1.59074 97.5972V101.7C1.59074 101.889 1.43416 102.042 1.24123 102.042ZM73.9176 96.6303C73.7246 96.6303 73.568 96.4771 73.568 96.2884V92.1852C73.568 91.9965 73.7246 91.8433 73.9176 91.8433C74.1105 91.8433 74.2671 91.9965 74.2671 92.1852V96.2884C74.2671 96.4771 74.1105 96.6303 73.9176 96.6303ZM1.24123 93.836C1.0483 93.836 0.891724 93.6828 0.891724 93.4941V89.391C0.891724 89.2022 1.0483 89.049 1.24123 89.049C1.43416 89.049 1.59074 89.2022 1.59074 89.391V93.4941C1.59074 93.6828 1.43416 93.836 1.24123 93.836ZM73.9176 88.424C73.7246 88.424 73.568 88.2708 73.568 88.0821V83.979C73.568 83.7902 73.7246 83.637 73.9176 83.637C74.1105 83.637 74.2671 83.7902 74.2671 83.979V88.0821C74.2671 88.2708 74.1105 88.424 73.9176 88.424ZM1.24123 85.6298C1.0483 85.6298 0.891724 85.4766 0.891724 85.2878V81.1847C0.891724 80.996 1.0483 80.8428 1.24123 80.8428C1.43416 80.8428 1.59074 80.996 1.59074 81.1847V85.2878C1.59074 85.4766 1.43416 85.6298 1.24123 85.6298ZM73.9176 80.2178C73.7246 80.2178 73.568 80.0646 73.568 79.8758V75.7727C73.568 75.5839 73.7246 75.4308 73.9176 75.4308C74.1105 75.4308 74.2671 75.5839 74.2671 75.7727V79.8758C74.2671 80.0646 74.1105 80.2178 73.9176 80.2178ZM1.24123 77.4235C1.0483 77.4235 0.891724 77.2703 0.891724 77.0816V72.9784C0.891724 72.7897 1.0483 72.6365 1.24123 72.6365C1.43416 72.6365 1.59074 72.7897 1.59074 72.9784V77.0816C1.59074 77.2703 1.43416 77.4235 1.24123 77.4235ZM73.9176 72.0115C73.7246 72.0115 73.568 71.8583 73.568 71.6696V67.5664C73.568 67.3777 73.7246 67.2245 73.9176 67.2245C74.1105 67.2245 74.2671 67.3777 74.2671 67.5664V71.6696C74.2671 71.8583 74.1105 72.0115 73.9176 72.0115ZM1.24123 69.2172C1.0483 69.2172 0.891724 69.064 0.891724 68.8753V64.7722C0.891724 64.5834 1.0483 64.4302 1.24123 64.4302C1.43416 64.4302 1.59074 64.5834 1.59074 64.7722V68.8753C1.59074 69.064 1.43416 69.2172 1.24123 69.2172ZM73.9176 63.8052C73.7246 63.8052 73.568 63.652 73.568 63.4633V59.3602C73.568 59.1714 73.7246 59.0182 73.9176 59.0182C74.1105 59.0182 74.2671 59.1714 74.2671 59.3602V63.4633C74.2671 63.652 74.1105 63.8052 73.9176 63.8052ZM1.24123 61.011C1.0483 61.011 0.891724 60.8578 0.891724 60.669V56.5659C0.891724 56.3772 1.0483 56.224 1.24123 56.224C1.43416 56.224 1.59074 56.3772 1.59074 56.5659V60.669C1.59074 60.8578 1.43416 61.011 1.24123 61.011ZM73.9176 55.5989C73.7246 55.5989 73.568 55.4458 73.568 55.257V51.1539C73.568 50.9651 73.7246 50.812 73.9176 50.812C74.1105 50.812 74.2671 50.9651 74.2671 51.1539V55.257C74.2671 55.4458 74.1105 55.5989 73.9176 55.5989ZM1.24123 52.8047C1.0483 52.8047 0.891724 52.6515 0.891724 52.4628V48.3596C0.891724 48.1709 1.0483 48.0177 1.24123 48.0177C1.43416 48.0177 1.59074 48.1709 1.59074 48.3596V52.4628C1.59074 52.6515 1.43416 52.8047 1.24123 52.8047ZM73.9176 47.3927C73.7246 47.3927 73.568 47.2395 73.568 47.0508V42.9476C73.568 42.7589 73.7246 42.6057 73.9176 42.6057C74.1105 42.6057 74.2671 42.7589 74.2671 42.9476V47.0508C74.2671 47.2395 74.1105 47.3927 73.9176 47.3927ZM1.24123 44.5984C1.0483 44.5984 0.891724 44.4452 0.891724 44.2565V40.1534C0.891724 39.9646 1.0483 39.8114 1.24123 39.8114C1.43416 39.8114 1.59074 39.9646 1.59074 40.1534V44.2565C1.59074 44.4452 1.43416 44.5984 1.24123 44.5984ZM73.9176 39.1864C73.7246 39.1864 73.568 39.0332 73.568 38.8445V34.7414C73.568 34.5526 73.7246 34.3994 73.9176 34.3994C74.1105 34.3994 74.2671 34.5526 74.2671 34.7414V38.8445C74.2671 39.0332 74.1105 39.1864 73.9176 39.1864ZM1.24123 36.3922C1.0483 36.3922 0.891724 36.239 0.891724 36.0502V31.9471C0.891724 31.7584 1.0483 31.6052 1.24123 31.6052C1.43416 31.6052 1.59074 31.7584 1.59074 31.9471V36.0502C1.59074 36.239 1.43416 36.3922 1.24123 36.3922ZM73.9176 30.9802C73.7246 30.9802 73.568 30.827 73.568 30.6382V26.5351C73.568 26.3463 73.7246 26.1932 73.9176 26.1932C74.1105 26.1932 74.2671 26.3463 74.2671 26.5351V30.6382C74.2671 30.827 74.1105 30.9802 73.9176 30.9802ZM1.24123 28.1859C1.0483 28.1859 0.891724 28.0327 0.891724 27.844V23.7408C0.891724 23.5521 1.0483 23.3989 1.24123 23.3989C1.43416 23.3989 1.59074 23.5521 1.59074 23.7408V27.844C1.59074 28.0327 1.43416 28.1859 1.24123 28.1859ZM73.9176 22.7739C73.7246 22.7739 73.568 22.6207 73.568 22.432V18.3288C73.568 18.1401 73.7246 17.9869 73.9176 17.9869C74.1105 17.9869 74.2671 18.1401 74.2671 18.3288V22.432C74.2671 22.6207 74.1105 22.7739 73.9176 22.7739ZM1.24123 19.9796C1.0483 19.9796 0.891724 19.8264 0.891724 19.6377V15.5346C0.891724 15.3458 1.0483 15.1926 1.24123 15.1926C1.43416 15.1926 1.59074 15.3458 1.59074 15.5346V19.6377C1.59074 19.8264 1.43416 19.9796 1.24123 19.9796ZM73.9176 14.5676C73.7246 14.5676 73.568 14.4144 73.568 14.2257V10.1225C73.568 9.9338 73.7246 9.78062 73.9176 9.78062C74.1105 9.78062 74.2671 9.9338 74.2671 10.1225V14.2257C74.2671 14.4144 74.1105 14.5676 73.9176 14.5676ZM1.24123 11.7734C1.0483 11.7734 0.891724 11.6202 0.891724 11.4314V7.32831C0.891724 7.13957 1.0483 6.98638 1.24123 6.98638C1.43416 6.98638 1.59074 7.13957 1.59074 7.32831V11.4314C1.59074 11.6202 1.43416 11.7734 1.24123 11.7734ZM73.9176 6.36134C73.7246 6.36134 73.568 6.20815 73.568 6.01941V1.91628C73.568 1.72753 73.7246 1.57435 73.9176 1.57435C74.1105 1.57435 74.2671 1.72753 74.2671 1.91628V6.01941C74.2671 6.20815 74.1105 6.36134 73.9176 6.36134ZM1.24123 3.5671C1.0483 3.5671 0.891724 3.41392 0.891724 3.22518V0.85083H3.35784C3.55077 0.85083 3.70735 1.00401 3.70735 1.19276C3.70735 1.3815 3.55077 1.53469 3.35784 1.53469H1.59074V3.22518C1.59074 3.41392 1.43416 3.5671 1.24123 3.5671ZM70.4616 1.53469H66.2676C66.0746 1.53469 65.9181 1.3815 65.9181 1.19276C65.9181 1.00401 66.0746 0.85083 66.2676 0.85083H70.4616C70.6546 0.85083 70.8111 1.00401 70.8111 1.19276C70.8111 1.3815 70.656 1.53469 70.4616 1.53469ZM62.0735 1.53469H57.8794C57.6865 1.53469 57.5299 1.3815 57.5299 1.19276C57.5299 1.00401 57.6865 0.85083 57.8794 0.85083H62.0735C62.2664 0.85083 62.423 1.00401 62.423 1.19276C62.423 1.3815 62.2678 1.53469 62.0735 1.53469ZM53.6853 1.53469H49.4913C49.2983 1.53469 49.1418 1.3815 49.1418 1.19276C49.1418 1.00401 49.2983 0.85083 49.4913 0.85083H53.6853C53.8783 0.85083 54.0348 1.00401 54.0348 1.19276C54.0348 1.3815 53.8797 1.53469 53.6853 1.53469ZM45.2972 1.53469H41.1031C40.9102 1.53469 40.7536 1.3815 40.7536 1.19276C40.7536 1.00401 40.9102 0.85083 41.1031 0.85083H45.2972C45.4901 0.85083 45.6467 1.00401 45.6467 1.19276C45.6467 1.3815 45.4915 1.53469 45.2972 1.53469ZM36.909 1.53469H32.715C32.522 1.53469 32.3655 1.3815 32.3655 1.19276C32.3655 1.00401 32.522 0.85083 32.715 0.85083H36.909C37.102 0.85083 37.2586 1.00401 37.2586 1.19276C37.2586 1.3815 37.1034 1.53469 36.909 1.53469ZM28.5209 1.53469H24.3268C24.1339 1.53469 23.9773 1.3815 23.9773 1.19276C23.9773 1.00401 24.1339 0.85083 24.3268 0.85083H28.5209C28.7138 0.85083 28.8704 1.00401 28.8704 1.19276C28.8704 1.3815 28.7152 1.53469 28.5209 1.53469ZM20.1327 1.53469H15.9387C15.7457 1.53469 15.5892 1.3815 15.5892 1.19276C15.5892 1.00401 15.7457 0.85083 15.9387 0.85083H20.1327C20.3257 0.85083 20.4823 1.00401 20.4823 1.19276C20.4823 1.3815 20.3271 1.53469 20.1327 1.53469ZM11.7446 1.53469H7.55053C7.3576 1.53469 7.20102 1.3815 7.20102 1.19276C7.20102 1.00401 7.3576 0.85083 7.55053 0.85083H11.7446C11.9375 0.85083 12.0941 1.00401 12.0941 1.19276C12.0941 1.3815 11.9389 1.53469 11.7446 1.53469Z" fill="#121212"/>
</svg>
