<svg width="86" height="36" viewBox="0 0 86 36" fill="none" xmlns="http://www.w3.org/2000/svg">
<path d="M8.11637 35.0242H3.22888C1.65051 35.0242 0.365723 33.7673 0.365723 32.2231V3.39865C0.365723 1.85313 1.64911 0.596191 3.22888 0.596191H8.11637C9.69474 0.596191 10.9795 1.85313 10.9795 3.39865V32.2231C10.9795 33.7673 9.69474 35.0242 8.11637 35.0242ZM3.22888 1.9639C2.42082 1.9639 1.76375 2.60811 1.76375 3.39865V32.2231C1.76375 33.0137 2.42082 33.6565 3.22888 33.6565H8.11637C8.92443 33.6565 9.5815 33.0137 9.5815 32.2231V3.39865C9.5815 2.60811 8.92443 1.9639 8.11637 1.9639H3.22888Z" fill="#121212"/>
<path d="M83.1023 35.0242H78.2148C76.6365 35.0242 75.3517 33.7673 75.3517 32.2231V3.39865C75.3517 1.85313 76.6351 0.596191 78.2148 0.596191H83.1023C84.6807 0.596191 85.9655 1.85313 85.9655 3.39865V32.2231C85.9655 33.7673 84.6807 35.0242 83.1023 35.0242ZM78.2148 1.9639C77.4068 1.9639 76.7497 2.60811 76.7497 3.39865V32.2231C76.7497 33.0137 77.4068 33.6565 78.2148 33.6565H83.1023C83.9104 33.6565 84.5675 33.0137 84.5675 32.2231V3.39865C84.5675 2.60811 83.9104 1.9639 83.1023 1.9639H78.2148Z" fill="#121212"/>
<path d="M30.0389 35.0239H12.4448C10.8664 35.0239 9.58167 33.767 9.58167 32.2228V28.8077C9.58167 27.2635 10.865 26.0066 12.4448 26.0066H30.0389C31.6173 26.0066 32.9021 27.2635 32.9021 28.8077V32.2228C32.9035 33.767 31.6187 35.0239 30.0389 35.0239ZM12.4448 27.3743C11.6368 27.3743 10.9797 28.0171 10.9797 28.8077V32.2228C10.9797 33.0134 11.6368 33.6562 12.4448 33.6562H30.0389C30.847 33.6562 31.5041 33.0134 31.5041 32.2228V28.8077C31.5041 28.0171 30.847 27.3743 30.0389 27.3743H12.4448Z" fill="#121212"/>
<path d="M30.0392 27.3744H12.4451C10.8667 27.3744 9.58191 26.1175 9.58191 24.572V7.35934C9.58191 5.81383 10.8653 4.55688 12.4451 4.55688H30.0392C31.6176 4.55688 32.9024 5.81383 32.9024 7.35934V24.572C32.9038 26.1175 31.619 27.3744 30.0392 27.3744ZM12.4451 5.9246C11.637 5.9246 10.9799 6.5688 10.9799 7.35934V24.572C10.9799 25.3625 11.637 26.0067 12.4451 26.0067H30.0392C30.8473 26.0067 31.5043 25.3625 31.5043 24.572V7.35934C31.5043 6.5688 30.8473 5.9246 30.0392 5.9246H12.4451Z" fill="#121212"/>
<path d="M51.9628 35.0241H34.3686C32.7903 35.0241 31.5055 33.7672 31.5055 32.2231V28.8079C31.5055 27.2638 32.7889 26.0068 34.3686 26.0068H51.9628C53.5411 26.0068 54.8259 27.2638 54.8259 28.8079V32.2231C54.8259 33.7672 53.5411 35.0241 51.9628 35.0241ZM34.3686 27.3745C33.5606 27.3745 32.9035 28.0174 32.9035 28.8079V32.2231C32.9035 33.0136 33.5606 33.6564 34.3686 33.6564H51.9628C52.7708 33.6564 53.4279 33.0136 53.4279 32.2231V28.8079C53.4279 28.0174 52.7708 27.3745 51.9628 27.3745H34.3686Z" fill="#121212"/>
<path d="M51.9628 27.3744H34.3686C32.7903 27.3744 31.5055 26.1175 31.5055 24.572V7.35934C31.5055 5.81383 32.7889 4.55688 34.3686 4.55688H51.9628C53.5411 4.55688 54.8259 5.81383 54.8259 7.35934V24.572C54.8259 26.1175 53.5411 27.3744 51.9628 27.3744ZM34.3686 5.9246C33.5606 5.9246 32.9035 6.5688 32.9035 7.35934V24.572C32.9035 25.3625 33.5606 26.0067 34.3686 26.0067H51.9628C52.7708 26.0067 53.4279 25.3625 53.4279 24.572V7.35934C53.4279 6.5688 52.7708 5.9246 51.9628 5.9246H34.3686Z" fill="#121212"/>
<path d="M73.8865 35.0241H56.2924C54.714 35.0241 53.4292 33.7672 53.4292 32.2231V28.8079C53.4292 27.2638 54.7126 26.0068 56.2924 26.0068H73.8865C75.4649 26.0068 76.7496 27.2638 76.7496 28.8079V32.2231C76.7496 33.7672 75.4649 35.0241 73.8865 35.0241ZM56.291 27.3745C55.4829 27.3745 54.8258 28.0174 54.8258 28.8079V32.2231C54.8258 33.0136 55.4829 33.6564 56.291 33.6564H73.8851C74.6932 33.6564 75.3502 33.0136 75.3502 32.2231V28.8079C75.3502 28.0174 74.6932 27.3745 73.8851 27.3745H56.291Z" fill="#121212"/>
<path d="M73.8865 27.3744H56.2924C54.714 27.3744 53.4292 26.1175 53.4292 24.572V7.35934C53.4292 5.81383 54.7126 4.55688 56.2924 4.55688H73.8865C75.4649 4.55688 76.7496 5.81383 76.7496 7.35934V24.572C76.7496 26.1175 75.4649 27.3744 73.8865 27.3744ZM56.291 5.9246C55.4829 5.9246 54.8258 6.5688 54.8258 7.35934V24.572C54.8258 25.3625 55.4829 26.0067 56.291 26.0067H73.8851C74.6932 26.0067 75.3502 25.3625 75.3502 24.572V7.35934C75.3502 6.5688 74.6932 5.9246 73.8851 5.9246H56.291Z" fill="#121212"/>
</svg>
