<svg width="505" height="431" viewBox="0 0 505 431" fill="none" xmlns="http://www.w3.org/2000/svg">
<path d="M480.445 316.568H451.786V312.465H476.251V239.27H480.445V316.568Z" fill="#121212"/>
<path d="M480.445 169.603H476.251V26.4422H365.807V22.3391H480.445V169.603Z" fill="#121212"/>
<path d="M239.722 22.3391H148.185V26.4422H239.722V22.3391Z" fill="#121212"/>
<path d="M28.4471 185.824H24.2531V22.3391H76.974V26.4422H28.4471V185.824Z" fill="#121212"/>
<path d="M26.3501 413.049H24.2531V255.491H28.4471V408.946L322.728 408.945L322.761 312.422H367.468V316.526H326.953L326.923 413.048L26.3501 413.049Z" fill="#121212"/>
<path d="M148.884 29.6328H76.2736V19.1479H148.884V29.6328ZM77.673 28.2651H147.488V20.5157H77.673V28.2651Z" fill="#121212"/>
<path d="M483.707 239.954H472.988V168.919H483.707V239.954ZM474.386 238.586H482.309V170.287H474.386V238.586Z" fill="#121212"/>
<path d="M31.7086 256.175H20.99V185.141H31.7086V256.175ZM22.3894 254.808H30.312V186.508H22.3894V254.808Z" fill="#121212"/>
<path d="M366.506 29.6328H239.023V19.1479H366.506V29.6328ZM240.421 28.2651H365.108V20.5157H240.421V28.2651Z" fill="#121212"/>
<path d="M200.906 276.049H26.3499V271.946H196.712V243.168H200.906V276.049Z" fill="#121212"/>
<path d="M200.906 24.3904H196.712V198.09H200.906V24.3904Z" fill="#121212"/>
<path d="M198.809 239.856C198.424 239.856 198.11 239.549 198.11 239.172V235.069C198.11 234.691 198.424 234.385 198.809 234.385C199.195 234.385 199.508 234.691 199.508 235.069V239.172C199.508 239.549 199.195 239.856 198.809 239.856ZM198.809 231.649C198.424 231.649 198.11 231.343 198.11 230.965V226.862C198.11 226.485 198.424 226.179 198.809 226.179C199.195 226.179 199.508 226.485 199.508 226.862V230.965C199.508 231.343 199.195 231.649 198.809 231.649ZM198.809 223.443C198.424 223.443 198.11 223.137 198.11 222.759V218.655C198.11 218.277 198.424 217.971 198.809 217.971C199.195 217.971 199.508 218.277 199.508 218.655V222.759C199.508 223.137 199.195 223.443 198.809 223.443ZM198.809 215.235C198.424 215.235 198.11 214.929 198.11 214.552V210.448C198.11 210.071 198.424 209.765 198.809 209.765C199.195 209.765 199.508 210.071 199.508 210.448V214.552C199.508 214.93 199.195 215.235 198.809 215.235ZM198.809 207.029C198.424 207.029 198.11 206.723 198.11 206.345V202.242C198.11 201.865 198.424 201.558 198.809 201.558C199.195 201.558 199.508 201.865 199.508 202.242V206.345C199.508 206.724 199.195 207.029 198.809 207.029Z" fill="#121212"/>
<path d="M194.549 241.865C154.935 241.865 154.241 200.345 154.24 199.925L154.236 199.237H194.549V200.605H155.655C155.866 206.118 158.631 240.497 194.549 240.497V241.865Z" fill="#121212"/>
<path d="M324.856 183.986C324.47 183.986 324.157 183.68 324.157 183.302V179.199C324.157 178.822 324.47 178.515 324.856 178.515C325.242 178.515 325.555 178.822 325.555 179.199V183.302C325.555 183.68 325.243 183.986 324.856 183.986ZM324.856 175.78C324.47 175.78 324.157 175.473 324.157 175.096V170.993C324.157 170.615 324.47 170.309 324.856 170.309C325.242 170.309 325.555 170.615 325.555 170.993V175.096C325.555 175.473 325.243 175.78 324.856 175.78ZM324.856 167.574C324.47 167.574 324.157 167.267 324.157 166.89V162.787C324.157 162.409 324.47 162.103 324.856 162.103C325.242 162.103 325.555 162.409 325.555 162.787V166.89C325.555 167.267 325.243 167.574 324.856 167.574ZM324.856 159.367C324.47 159.367 324.157 159.061 324.157 158.683V154.58C324.157 154.203 324.47 153.896 324.856 153.896C325.242 153.896 325.555 154.203 325.555 154.58V158.683C325.555 159.061 325.243 159.367 324.856 159.367ZM324.856 151.161C324.47 151.161 324.157 150.855 324.157 150.477V146.374C324.157 145.997 324.47 145.69 324.856 145.69C325.242 145.69 325.555 145.997 325.555 146.374V150.477C325.555 150.855 325.243 151.161 324.856 151.161Z" fill="#121212"/>
<path d="M369.43 186.308H329.116V184.941H368.009C367.8 179.427 365.033 145.049 329.116 145.049V143.681C368.731 143.681 369.423 185.201 369.426 185.62L369.43 186.308Z" fill="#121212"/>
<path d="M66.8353 69.0694H37.7089C35.7181 69.0694 34.0978 67.4842 34.0978 65.5366V37.0431C34.0978 35.0954 35.7181 33.5103 37.7089 33.5103H66.8339C68.8247 33.5103 70.445 35.0954 70.445 37.0431V65.5366C70.4464 67.4842 68.8261 69.0694 66.8353 69.0694ZM37.7089 34.8766C36.4884 34.8766 35.4958 35.8477 35.4958 37.0417V65.5352C35.4958 66.7292 36.4884 67.7003 37.7089 67.7003H66.8339C68.0544 67.7003 69.047 66.7292 69.047 65.5352V37.0417C69.047 35.8477 68.0544 34.8766 66.8339 34.8766H37.7089Z" fill="#121212"/>
<path d="M187.45 69.0694H158.325C156.334 69.0694 154.714 67.4842 154.714 65.5366V37.0431C154.714 35.0954 156.334 33.5103 158.325 33.5103H187.45C189.441 33.5103 191.061 35.0954 191.061 37.0431V65.5366C191.061 67.4842 189.441 69.0694 187.45 69.0694ZM158.324 34.8766C157.103 34.8766 156.111 35.8477 156.111 37.0417V65.5352C156.111 66.7292 157.103 67.7003 158.324 67.7003H187.449C188.669 67.7003 189.662 66.7292 189.662 65.5352V37.0417C189.662 35.8477 188.669 34.8766 187.449 34.8766H158.324Z" fill="#121212"/>
<path d="M136.742 129.933H88.4155C86.2458 129.933 84.4801 128.205 84.4801 126.081V47.1615C84.4801 45.0375 86.2458 43.3101 88.4155 43.3101H136.742C138.912 43.3101 140.678 45.0375 140.678 47.1615V126.081C140.679 128.205 138.912 129.933 136.742 129.933ZM88.4155 44.6778C87.0161 44.6778 85.8781 45.7911 85.8781 47.1615V126.081C85.8781 127.45 87.0161 128.565 88.4155 128.565H136.742C138.142 128.565 139.28 127.452 139.28 126.081V47.1615C139.28 45.7925 138.142 44.6778 136.742 44.6778H88.4155Z" fill="#121212"/>
<path d="M106.837 66.7158H94.0623C92.4532 66.7158 91.1447 65.4356 91.1447 63.8613V51.3632C91.1447 49.789 92.4546 48.5088 94.0623 48.5088H106.837C108.447 48.5088 109.755 49.7903 109.755 51.3632V63.8613C109.755 65.4356 108.445 66.7158 106.837 66.7158ZM94.0609 49.8751C93.2221 49.8751 92.5413 50.5426 92.5413 51.3618V63.86C92.5413 64.6792 93.2235 65.3467 94.0609 65.3467H106.836C107.675 65.3467 108.356 64.6792 108.356 63.86V51.3618C108.356 50.5412 107.673 49.8751 106.836 49.8751H94.0609Z" fill="#121212"/>
<path d="M131.099 66.7158H118.322C116.713 66.7158 115.404 65.4356 115.404 63.8613V51.3632C115.404 49.789 116.713 48.5088 118.322 48.5088H131.099C132.708 48.5088 134.016 49.7903 134.016 51.3632V63.8613C134.015 65.4356 132.706 66.7158 131.099 66.7158ZM118.322 49.8751C117.485 49.8751 116.802 50.5426 116.802 51.3618V63.86C116.802 64.6792 117.485 65.3467 118.322 65.3467H131.099C131.936 65.3467 132.618 64.6792 132.618 63.86V51.3618C132.618 50.5412 131.936 49.8751 131.099 49.8751H118.322Z" fill="#121212"/>
<path d="M139.98 70.0625H85.1791V71.4302H139.98V70.0625Z" fill="#121212"/>
<path d="M53.1164 266.024H48.2289C46.6505 266.024 45.3657 264.767 45.3657 263.223V234.399C45.3657 232.853 46.6491 231.596 48.2289 231.596H53.1164C54.6947 231.596 55.9795 232.853 55.9795 234.399V263.223C55.9795 264.767 54.6947 266.024 53.1164 266.024ZM48.2289 232.964C47.4208 232.964 46.7637 233.608 46.7637 234.399V263.223C46.7637 264.014 47.4208 264.657 48.2289 264.657H53.1164C53.9244 264.657 54.5815 264.014 54.5815 263.223V234.399C54.5815 233.608 53.9244 232.964 53.1164 232.964H48.2289Z" fill="#121212"/>
<path d="M128.102 266.024H123.215C121.636 266.024 120.352 264.767 120.352 263.223V234.399C120.352 232.853 121.635 231.596 123.215 231.596H128.102C129.681 231.596 130.965 232.853 130.965 234.399V263.223C130.965 264.767 129.681 266.024 128.102 266.024ZM123.215 232.964C122.407 232.964 121.75 233.608 121.75 234.399V263.223C121.75 264.014 122.407 264.657 123.215 264.657H128.102C128.91 264.657 129.567 264.014 129.567 263.223V234.399C129.567 233.608 128.91 232.964 128.102 232.964H123.215Z" fill="#121212"/>
<path d="M75.0389 266.024H57.4448C55.8664 266.024 54.5817 264.767 54.5817 263.223V259.808C54.5817 258.264 55.865 257.007 57.4448 257.007H75.0389C76.6173 257.007 77.9021 258.264 77.9021 259.808V263.223C77.9035 264.767 76.6187 266.024 75.0389 266.024ZM57.4448 258.374C56.6368 258.374 55.9797 259.017 55.9797 259.808V263.223C55.9797 264.013 56.6368 264.656 57.4448 264.656H75.0389C75.847 264.656 76.5041 264.013 76.5041 263.223V259.808C76.5041 259.017 75.847 258.374 75.0389 258.374H57.4448Z" fill="#121212"/>
<path d="M75.0392 258.374H57.4451C55.8667 258.374 54.5819 257.117 54.5819 255.572V238.359C54.5819 236.814 55.8653 235.557 57.4451 235.557H75.0392C76.6176 235.557 77.9024 236.814 77.9024 238.359V255.572C77.9038 257.117 76.619 258.374 75.0392 258.374ZM57.4451 236.925C56.637 236.925 55.9799 237.569 55.9799 238.359V255.572C55.9799 256.363 56.637 257.007 57.4451 257.007H75.0392C75.8473 257.007 76.5043 256.363 76.5043 255.572V238.359C76.5043 237.569 75.8473 236.925 75.0392 236.925H57.4451Z" fill="#121212"/>
<path d="M96.9628 266.024H79.3686C77.7903 266.024 76.5055 264.767 76.5055 263.223V259.808C76.5055 258.264 77.7889 257.007 79.3686 257.007H96.9628C98.5411 257.007 99.8259 258.264 99.8259 259.808V263.223C99.8259 264.767 98.5411 266.024 96.9628 266.024ZM79.3686 258.375C78.5606 258.375 77.9035 259.017 77.9035 259.808V263.223C77.9035 264.014 78.5606 264.656 79.3686 264.656H96.9628C97.7708 264.656 98.4279 264.014 98.4279 263.223V259.808C98.4279 259.017 97.7708 258.375 96.9628 258.375H79.3686Z" fill="#121212"/>
<path d="M96.9628 258.374H79.3686C77.7903 258.374 76.5055 257.117 76.5055 255.572V238.359C76.5055 236.814 77.7889 235.557 79.3686 235.557H96.9628C98.5411 235.557 99.8259 236.814 99.8259 238.359V255.572C99.8259 257.117 98.5411 258.374 96.9628 258.374ZM79.3686 236.925C78.5606 236.925 77.9035 237.569 77.9035 238.359V255.572C77.9035 256.363 78.5606 257.007 79.3686 257.007H96.9628C97.7708 257.007 98.4279 256.363 98.4279 255.572V238.359C98.4279 237.569 97.7708 236.925 96.9628 236.925H79.3686Z" fill="#121212"/>
<path d="M118.887 266.024H101.292C99.714 266.024 98.4292 264.767 98.4292 263.223V259.808C98.4292 258.264 99.7126 257.007 101.292 257.007H118.887C120.465 257.007 121.75 258.264 121.75 259.808V263.223C121.75 264.767 120.465 266.024 118.887 266.024ZM101.291 258.375C100.483 258.375 99.8258 259.017 99.8258 259.808V263.223C99.8258 264.014 100.483 264.656 101.291 264.656H118.885C119.693 264.656 120.35 264.014 120.35 263.223V259.808C120.35 259.017 119.693 258.375 118.885 258.375H101.291Z" fill="#121212"/>
<path d="M118.887 258.374H101.292C99.714 258.374 98.4292 257.117 98.4292 255.572V238.359C98.4292 236.814 99.7126 235.557 101.292 235.557H118.887C120.465 235.557 121.75 236.814 121.75 238.359V255.572C121.75 257.117 120.465 258.374 118.887 258.374ZM101.291 236.925C100.483 236.925 99.8258 237.569 99.8258 238.359V255.572C99.8258 256.363 100.483 257.007 101.291 257.007H118.885C119.693 257.007 120.35 256.363 120.35 255.572V238.359C120.35 237.569 119.693 236.925 118.885 236.925H101.291Z" fill="#121212"/>
<path d="M253.194 321.378H248.096C246.466 321.378 245.14 320.082 245.14 318.487V288.423C245.14 286.828 246.466 285.532 248.096 285.532H253.194C254.824 285.532 256.15 286.828 256.15 288.423V318.487C256.15 320.082 254.824 321.378 253.194 321.378ZM248.096 286.898C247.237 286.898 246.538 287.582 246.538 288.422V318.485C246.538 319.325 247.237 320.009 248.096 320.009H253.194C254.053 320.009 254.752 319.325 254.752 318.485V288.423C254.752 287.583 254.053 286.899 253.194 286.899L248.096 286.898Z" fill="#121212"/>
<path d="M174.985 321.378H169.888C168.258 321.378 166.931 320.082 166.931 318.487V288.423C166.931 286.828 168.258 285.532 169.888 285.532H174.985C176.616 285.532 177.942 286.828 177.942 288.423V318.487C177.941 320.082 176.616 321.378 174.985 321.378ZM169.888 286.898C169.028 286.898 168.329 287.582 168.329 288.422V318.485C168.329 319.325 169.028 320.009 169.888 320.009H174.985C175.845 320.009 176.544 319.325 176.544 318.485V288.423C176.544 287.583 175.845 286.899 174.985 286.899L169.888 286.898Z" fill="#121212"/>
<path d="M243.582 294.876H225.231C223.601 294.876 222.275 293.579 222.275 291.985V288.423C222.275 286.828 223.601 285.532 225.231 285.532H243.582C245.212 285.532 246.539 286.828 246.539 288.423V291.985C246.537 293.579 245.212 294.876 243.582 294.876ZM225.23 286.898C224.37 286.898 223.671 287.582 223.671 288.422V291.983C223.671 292.823 224.37 293.507 225.23 293.507H243.581C244.44 293.507 245.139 292.823 245.139 291.983V288.422C245.139 287.582 244.44 286.898 243.581 286.898H225.23Z" fill="#121212"/>
<path d="M243.582 317.248H225.231C223.601 317.248 222.275 315.95 222.275 314.355V296.402C222.275 294.808 223.601 293.51 225.231 293.51H243.582C245.212 293.51 246.539 294.808 246.539 296.402V314.355C246.537 315.95 245.212 317.248 243.582 317.248ZM225.23 294.876C224.37 294.876 223.671 295.56 223.671 296.401V314.354C223.671 315.195 224.37 315.879 225.23 315.879H243.581C244.44 315.879 245.139 315.195 245.139 314.354V296.401C245.139 295.56 244.44 294.876 243.581 294.876H225.23Z" fill="#121212"/>
<path d="M220.716 294.876H202.366C200.736 294.876 199.409 293.579 199.409 291.985V288.423C199.409 286.828 200.736 285.532 202.366 285.532H220.716C222.346 285.532 223.673 286.828 223.673 288.423V291.985C223.672 293.579 222.346 294.876 220.716 294.876ZM202.366 286.898C201.506 286.898 200.807 287.582 200.807 288.422V291.983C200.807 292.823 201.506 293.507 202.366 293.507H220.716C221.576 293.507 222.275 292.823 222.275 291.983V288.422C222.275 287.582 221.576 286.898 220.716 286.898H202.366Z" fill="#121212"/>
<path d="M220.716 317.248H202.366C200.736 317.248 199.409 315.95 199.409 314.355V296.402C199.409 294.808 200.736 293.51 202.366 293.51H220.716C222.346 293.51 223.673 294.808 223.673 296.402V314.355C223.672 315.95 222.346 317.248 220.716 317.248ZM202.366 294.876C201.506 294.876 200.807 295.56 200.807 296.401V314.354C200.807 315.195 201.506 315.879 202.366 315.879H220.716C221.576 315.879 222.275 315.195 222.275 314.354V296.401C222.275 295.56 221.576 294.876 220.716 294.876H202.366Z" fill="#121212"/>
<path d="M197.851 294.876H179.5C177.87 294.876 176.543 293.579 176.543 291.985V288.423C176.543 286.828 177.87 285.532 179.5 285.532H197.851C199.481 285.532 200.807 286.828 200.807 288.423V291.985C200.807 293.579 199.481 294.876 197.851 294.876ZM179.5 286.898C178.64 286.898 177.941 287.582 177.941 288.422V291.983C177.941 292.823 178.64 293.507 179.5 293.507H197.851C198.71 293.507 199.409 292.823 199.409 291.983V288.422C199.409 287.582 198.71 286.898 197.851 286.898H179.5Z" fill="#121212"/>
<path d="M197.851 317.248H179.5C177.87 317.248 176.543 315.95 176.543 314.355V296.402C176.543 294.808 177.87 293.51 179.5 293.51H197.851C199.481 293.51 200.807 294.808 200.807 296.402V314.355C200.807 315.95 199.481 317.248 197.851 317.248ZM179.5 294.876C178.64 294.876 177.941 295.56 177.941 296.401V314.354C177.941 315.195 178.64 315.879 179.5 315.879H197.851C198.71 315.879 199.409 315.195 199.409 314.354V296.401C199.409 295.56 198.71 294.876 197.851 294.876H179.5Z" fill="#121212"/>
<path d="M81.1902 227.84C62.4958 227.84 47.2881 219.184 47.2881 208.543C47.2881 197.902 62.4958 189.246 81.1902 189.246C99.8846 189.246 115.092 197.902 115.092 208.543C115.092 219.184 99.8832 227.84 81.1902 227.84ZM81.1902 190.612C63.2675 190.612 48.6861 198.656 48.6861 208.542C48.6861 218.429 63.2675 226.471 81.1902 226.471C99.1128 226.471 113.694 218.428 113.694 208.542C113.694 198.656 99.1128 190.612 81.1902 190.612Z" fill="#121212"/>
<path d="M452.485 313.661H366.739V273.537L367.442 273.541C367.837 273.544 404.099 274.124 409.612 304.781C415.124 274.124 451.386 273.544 451.782 273.541L452.485 273.537V313.661ZM410.315 312.294H451.087V274.926C445.488 275.13 410.765 277.799 410.315 312.294ZM368.137 312.294H408.909C408.449 278.24 373.562 275.199 368.137 274.933V312.294Z" fill="#121212"/>
<path d="M451.786 315.285H367.438V316.652H451.786V315.285Z" fill="#121212"/>
<path d="M326.953 141.33H322.759V132.098H478.348V136.201H326.953V141.33Z" fill="#121212"/>
<path d="M326.953 188.971H322.759V314.472H326.953V188.971Z" fill="#121212"/>
<path d="M343.439 309.9H325.557V254.663H343.439V309.9ZM326.955 308.533H342.041V256.03H326.955V308.533Z" fill="#121212"/>
<path d="M342.055 255.146L325.541 309.005L326.879 309.398L343.392 255.539L342.055 255.146Z" fill="#121212"/>
<path d="M326.932 255.149L325.594 255.541L342.079 309.411L343.417 309.019L326.932 255.149Z" fill="#121212"/>
<path d="M343.439 252.642H325.557V197.406H343.439V252.642ZM326.955 251.274H342.041V198.773H326.955V251.274Z" fill="#121212"/>
<path d="M342.056 197.894L325.543 251.752L326.88 252.144L343.394 198.287L342.056 197.894Z" fill="#121212"/>
<path d="M326.931 197.894L325.593 198.286L342.077 252.155L343.415 251.763L326.931 197.894Z" fill="#121212"/>
<path d="M439.669 268.174H435.475C435.282 268.174 435.125 268.021 435.125 267.832C435.125 267.643 435.282 267.49 435.475 267.49H439.339C439.326 267.455 439.319 267.416 439.319 267.377V263.274C439.319 263.085 439.476 262.932 439.669 262.932C439.862 262.932 440.018 263.085 440.018 263.274V267.377C440.018 267.463 439.985 267.544 439.93 267.605C439.985 267.665 440.018 267.746 440.018 267.832C440.018 268.021 439.862 268.174 439.669 268.174ZM431.281 268.174H427.086C426.894 268.174 426.737 268.021 426.737 267.832C426.737 267.643 426.894 267.49 427.086 267.49H431.281C431.473 267.49 431.63 267.643 431.63 267.832C431.63 268.021 431.473 268.174 431.281 268.174ZM422.892 268.174H418.698C418.505 268.174 418.349 268.021 418.349 267.832C418.349 267.643 418.505 267.49 418.698 267.49H422.892C423.085 267.49 423.242 267.643 423.242 267.832C423.242 268.021 423.085 268.174 422.892 268.174ZM414.504 268.174H410.31C410.117 268.174 409.961 268.021 409.961 267.832C409.961 267.643 410.117 267.49 410.31 267.49H414.504C414.697 267.49 414.854 267.643 414.854 267.832C414.854 268.021 414.697 268.174 414.504 268.174ZM406.116 268.174H401.922C401.729 268.174 401.573 268.021 401.573 267.832C401.573 267.643 401.729 267.49 401.922 267.49H406.116C406.309 267.49 406.466 267.643 406.466 267.832C406.466 268.021 406.309 268.174 406.116 268.174ZM397.728 268.174H393.534C393.341 268.174 393.184 268.021 393.184 267.832C393.184 267.643 393.341 267.49 393.534 267.49H397.728C397.921 267.49 398.077 267.643 398.077 267.832C398.077 268.021 397.921 268.174 397.728 268.174ZM389.34 268.174H385.146C384.953 268.174 384.796 268.021 384.796 267.832C384.796 267.643 384.953 267.49 385.146 267.49H389.34C389.533 267.49 389.689 267.643 389.689 267.832C389.689 268.021 389.533 268.174 389.34 268.174ZM380.952 268.174H377.341V266.92C377.341 266.731 377.497 266.578 377.69 266.578C377.883 266.578 378.04 266.731 378.04 266.92V267.49H380.952C381.145 267.49 381.301 267.643 381.301 267.832C381.301 268.021 381.145 268.174 380.952 268.174ZM377.69 263.159C377.497 263.159 377.341 263.005 377.341 262.817V258.714C377.341 258.525 377.497 258.372 377.69 258.372C377.883 258.372 378.04 258.525 378.04 258.714V262.817C378.04 263.005 377.883 263.159 377.69 263.159ZM439.669 259.512C439.476 259.512 439.319 259.359 439.319 259.17V255.067C439.319 254.879 439.476 254.725 439.669 254.725C439.862 254.725 440.018 254.879 440.018 255.067V259.17C440.018 259.359 439.862 259.512 439.669 259.512ZM377.69 254.952C377.497 254.952 377.341 254.799 377.341 254.61V250.507C377.341 250.319 377.497 250.165 377.69 250.165C377.883 250.165 378.04 250.319 378.04 250.507V254.61C378.04 254.799 377.883 254.952 377.69 254.952ZM439.669 251.306C439.476 251.306 439.319 251.153 439.319 250.964V246.861C439.319 246.672 439.476 246.519 439.669 246.519C439.862 246.519 440.018 246.672 440.018 246.861V250.964C440.018 251.153 439.862 251.306 439.669 251.306ZM377.69 246.746C377.497 246.746 377.341 246.593 377.341 246.404V242.301C377.341 242.112 377.497 241.959 377.69 241.959C377.883 241.959 378.04 242.112 378.04 242.301V246.404C378.04 246.593 377.883 246.746 377.69 246.746ZM439.669 243.1C439.476 243.1 439.319 242.947 439.319 242.758V238.655C439.319 238.466 439.476 238.313 439.669 238.313C439.862 238.313 440.018 238.466 440.018 238.655V242.758C440.018 242.947 439.862 243.1 439.669 243.1ZM377.69 238.54C377.497 238.54 377.341 238.387 377.341 238.198V234.095C377.341 233.906 377.497 233.753 377.69 233.753C377.883 233.753 378.04 233.906 378.04 234.095V238.198C378.04 238.387 377.883 238.54 377.69 238.54ZM439.669 234.894C439.476 234.894 439.319 234.74 439.319 234.552V230.448C439.319 230.26 439.476 230.107 439.669 230.107C439.862 230.107 440.018 230.26 440.018 230.448V234.552C440.018 234.74 439.862 234.894 439.669 234.894ZM377.69 230.334C377.497 230.334 377.341 230.18 377.341 229.992V225.888C377.341 225.7 377.497 225.547 377.69 225.547C377.883 225.547 378.04 225.7 378.04 225.888V229.992C378.04 230.18 377.883 230.334 377.69 230.334ZM439.669 226.687C439.476 226.687 439.319 226.534 439.319 226.345V222.242C439.319 222.053 439.476 221.9 439.669 221.9C439.862 221.9 440.018 222.053 440.018 222.242V226.345C440.018 226.534 439.862 226.687 439.669 226.687ZM377.69 222.127C377.497 222.127 377.341 221.974 377.341 221.785V217.682C377.341 217.493 377.497 217.34 377.69 217.34C377.883 217.34 378.04 217.493 378.04 217.682V221.785C378.04 221.974 377.883 222.127 377.69 222.127ZM439.669 218.481C439.476 218.481 439.319 218.328 439.319 218.139V214.036C439.319 213.847 439.476 213.694 439.669 213.694C439.862 213.694 440.018 213.847 440.018 214.036V218.139C440.018 218.328 439.862 218.481 439.669 218.481ZM377.69 213.921C377.497 213.921 377.341 213.768 377.341 213.579V209.476C377.341 209.287 377.497 209.134 377.69 209.134C377.883 209.134 378.04 209.287 378.04 209.476V213.579C378.04 213.768 377.883 213.921 377.69 213.921ZM439.669 210.275C439.476 210.275 439.319 210.122 439.319 209.933V205.83C439.319 205.641 439.476 205.488 439.669 205.488C439.862 205.488 440.018 205.641 440.018 205.83V209.933C440.018 210.122 439.862 210.275 439.669 210.275ZM377.69 205.715C377.497 205.715 377.341 205.562 377.341 205.373V201.27C377.341 201.081 377.497 200.928 377.69 200.928C377.883 200.928 378.04 201.081 378.04 201.27V205.373C378.04 205.562 377.883 205.715 377.69 205.715ZM439.669 202.068C439.476 202.068 439.319 201.915 439.319 201.727V197.623C439.319 197.435 439.476 197.281 439.669 197.281C439.862 197.281 440.018 197.435 440.018 197.623V201.727C440.018 201.915 439.862 202.068 439.669 202.068ZM377.69 197.508C377.497 197.508 377.341 197.355 377.341 197.167V193.063C377.341 192.875 377.497 192.722 377.69 192.722C377.883 192.722 378.04 192.875 378.04 193.063V197.167C378.04 197.355 377.883 197.508 377.69 197.508ZM439.669 193.862C439.476 193.862 439.319 193.709 439.319 193.52V189.417C439.319 189.228 439.476 189.075 439.669 189.075C439.862 189.075 440.018 189.228 440.018 189.417V193.52C440.018 193.709 439.862 193.862 439.669 193.862ZM377.69 189.302C377.497 189.302 377.341 189.149 377.341 188.96V184.857C377.341 184.668 377.497 184.515 377.69 184.515C377.883 184.515 378.04 184.668 378.04 184.857V188.96C378.04 189.149 377.883 189.302 377.69 189.302ZM439.669 185.656C439.476 185.656 439.319 185.503 439.319 185.314V181.211C439.319 181.022 439.476 180.869 439.669 180.869C439.862 180.869 440.018 181.022 440.018 181.211V185.314C440.018 185.503 439.862 185.656 439.669 185.656ZM377.69 181.096C377.497 181.096 377.341 180.943 377.341 180.754V176.651C377.341 176.462 377.497 176.309 377.69 176.309C377.883 176.309 378.04 176.462 378.04 176.651V180.754C378.04 180.943 377.883 181.096 377.69 181.096ZM439.669 177.45C439.476 177.45 439.319 177.296 439.319 177.108V173.005C439.319 172.816 439.476 172.663 439.669 172.663C439.862 172.663 440.018 172.816 440.018 173.005V177.108C440.018 177.296 439.862 177.45 439.669 177.45ZM377.69 172.89C377.497 172.89 377.341 172.737 377.341 172.548V168.445C377.341 168.256 377.497 168.103 377.69 168.103C377.883 168.103 378.04 168.256 378.04 168.445V172.548C378.04 172.737 377.883 172.89 377.69 172.89ZM439.669 169.243C439.476 169.243 439.319 169.09 439.319 168.901V164.798C439.319 164.61 439.476 164.456 439.669 164.456C439.862 164.456 440.018 164.61 440.018 164.798V168.901C440.018 169.09 439.862 169.243 439.669 169.243ZM377.69 164.683C377.497 164.683 377.341 164.53 377.341 164.342V160.238C377.341 160.05 377.497 159.896 377.69 159.896C377.883 159.896 378.04 160.05 378.04 160.238V164.342C378.04 164.53 377.883 164.683 377.69 164.683ZM439.669 161.037C439.476 161.037 439.319 160.884 439.319 160.695V158.302H438.272C438.079 158.302 437.923 158.149 437.923 157.96C437.923 157.771 438.079 157.618 438.272 157.618H440.018V160.695C440.018 160.884 439.862 161.037 439.669 161.037ZM434.078 158.3H429.884C429.691 158.3 429.534 158.147 429.534 157.958C429.534 157.77 429.691 157.616 429.884 157.616H434.078C434.271 157.616 434.427 157.77 434.427 157.958C434.427 158.147 434.271 158.3 434.078 158.3ZM425.69 158.3H421.496C421.303 158.3 421.146 158.147 421.146 157.958C421.146 157.77 421.303 157.616 421.496 157.616H425.69C425.883 157.616 426.039 157.77 426.039 157.958C426.039 158.147 425.883 158.3 425.69 158.3ZM417.302 158.3H413.108C412.915 158.3 412.758 158.147 412.758 157.958C412.758 157.77 412.915 157.616 413.108 157.616H417.302C417.495 157.616 417.651 157.77 417.651 157.958C417.651 158.147 417.495 158.3 417.302 158.3ZM408.914 158.3H404.719C404.527 158.3 404.37 158.147 404.37 157.958C404.37 157.77 404.527 157.616 404.719 157.616H408.914C409.106 157.616 409.263 157.77 409.263 157.958C409.263 158.147 409.106 158.3 408.914 158.3ZM400.525 158.3H396.331C396.138 158.3 395.982 158.147 395.982 157.958C395.982 157.77 396.138 157.616 396.331 157.616H400.525C400.718 157.616 400.875 157.77 400.875 157.958C400.875 158.147 400.718 158.3 400.525 158.3ZM392.137 158.3H387.943C387.75 158.3 387.594 158.147 387.594 157.958C387.594 157.77 387.75 157.616 387.943 157.616H392.137C392.33 157.616 392.487 157.77 392.487 157.958C392.487 158.147 392.33 158.3 392.137 158.3ZM383.749 158.3H379.555C379.362 158.3 379.206 158.147 379.206 157.958C379.206 157.77 379.362 157.616 379.555 157.616H383.749C383.942 157.616 384.099 157.77 384.099 157.958C384.099 158.147 383.942 158.3 383.749 158.3Z" fill="#121212"/>
<path d="M479.047 133.123H451.086V36.6997H479.047V133.123ZM452.484 131.756H477.649V38.0674H452.484V131.756Z" fill="#121212"/>
<path d="M452.485 134.833H422.31V105.314H452.485V134.833ZM423.708 133.466H451.087V106.682H423.708V133.466Z" fill="#121212"/>
<path d="M451.785 111.924H423.008V113.292H451.785V111.924Z" fill="#121212"/>
<path d="M478.348 105.314H451.786V106.682H478.348V105.314Z" fill="#121212"/>
<path d="M473.979 60.1217H454.757V41.3157H473.979V60.1217ZM455.456 59.4378H473.28V41.9995H455.456V59.4378Z" fill="#121212"/>
<path d="M459.999 50.4604C457.831 50.4604 456.066 48.7343 456.066 46.613C456.066 44.4917 457.831 42.7656 459.999 42.7656C462.167 42.7656 463.932 44.4917 463.932 46.613C463.932 48.7343 462.167 50.4604 459.999 50.4604ZM459.999 43.4508C458.217 43.4508 456.765 44.8705 456.765 46.6144C456.765 48.3582 458.215 49.7779 459.999 49.7779C461.783 49.7779 463.233 48.3582 463.233 46.6144C463.233 44.8705 461.783 43.4508 459.999 43.4508Z" fill="#121212"/>
<path d="M468.736 50.4604C466.568 50.4604 464.804 48.7343 464.804 46.613C464.804 44.4917 466.568 42.7656 468.736 42.7656C470.905 42.7656 472.669 44.4917 472.669 46.613C472.669 48.7343 470.905 50.4604 468.736 50.4604ZM468.736 43.4508C466.954 43.4508 465.503 44.8705 465.503 46.6144C465.503 48.3582 466.953 49.7779 468.736 49.7779C470.52 49.7779 471.97 48.3582 471.97 46.6144C471.97 44.8705 470.52 43.4508 468.736 43.4508Z" fill="#121212"/>
<path d="M459.999 58.672C457.831 58.672 456.066 56.946 456.066 54.8247C456.066 52.7034 457.831 50.9773 459.999 50.9773C462.167 50.9773 463.932 52.7034 463.932 54.8247C463.932 56.946 462.167 58.672 459.999 58.672ZM459.999 51.6625C458.217 51.6625 456.765 53.0822 456.765 54.826C456.765 56.5699 458.215 57.9895 459.999 57.9895C461.783 57.9895 463.233 56.5699 463.233 54.826C463.233 53.0822 461.783 51.6625 459.999 51.6625Z" fill="#121212"/>
<path d="M468.736 58.672C466.568 58.672 464.804 56.946 464.804 54.8247C464.804 52.7034 466.568 50.9773 468.736 50.9773C470.905 50.9773 472.669 52.7034 472.669 54.8247C472.669 56.946 470.905 58.672 468.736 58.672ZM468.736 51.6625C466.954 51.6625 465.503 53.0822 465.503 54.826C465.503 56.5699 466.953 57.9895 468.736 57.9895C470.52 57.9895 471.97 56.5699 471.97 54.826C471.97 53.0822 470.52 51.6625 468.736 51.6625Z" fill="#121212"/>
<path d="M473.979 103.376H454.757V74.8247H473.979V103.376ZM455.456 102.692H473.28V75.5086H455.456V102.692Z" fill="#121212"/>
<path d="M375.804 105.311C368.424 105.311 361.486 102.499 356.266 97.3934C345.494 86.8538 345.494 69.7041 356.266 59.1645C361.484 54.0588 368.423 51.2468 375.804 51.2468C383.186 51.2468 390.123 54.0588 395.342 59.1645C406.115 69.7041 406.115 86.8538 395.342 97.3934C390.123 102.5 383.185 105.311 375.804 105.311ZM375.804 52.6159C368.798 52.6159 362.209 55.2857 357.254 60.1329C347.027 70.139 347.027 86.4203 357.254 96.4278C362.209 101.275 368.798 103.945 375.804 103.945C382.811 103.945 389.399 101.275 394.353 96.4278C404.581 86.4216 404.581 70.1404 394.353 60.1329C389.397 55.2857 382.81 52.6159 375.804 52.6159Z" fill="#121212"/>
<path d="M347.51 118.433L334.761 105.961L345.397 95.5539C346.524 94.4515 348.491 94.4488 349.621 95.5539L358.147 103.897C358.711 104.448 359.021 105.181 359.021 105.962C359.021 106.743 358.711 107.475 358.147 108.027L347.51 118.433ZM336.738 105.961L347.51 116.499L357.158 107.059C357.775 106.453 357.775 105.468 357.158 104.864L348.631 96.5209C348.009 95.915 347.002 95.9163 346.386 96.5209L336.738 105.961Z" fill="#121212"/>
<path d="M339.844 101.954L338.855 102.921L350.616 114.426L351.605 113.459L339.844 101.954Z" fill="#121212"/>
<path d="M404.098 61.8629C403.301 61.8629 402.551 61.5593 401.987 61.0081L393.459 52.6651C392.895 52.1139 392.585 51.3808 392.585 50.5998C392.585 49.8189 392.895 49.0872 393.459 48.5346L404.096 38.1277L416.845 50.5998L406.207 61.0068C405.644 61.5593 404.895 61.8629 404.098 61.8629ZM404.098 40.0616L394.449 49.5016C393.831 50.1075 393.831 51.0922 394.449 51.6968L402.976 60.0398C403.596 60.6443 404.601 60.6443 405.22 60.0398L414.869 50.5998L404.098 40.0616Z" fill="#121212"/>
<path d="M400.985 42.1379L399.996 43.105L411.757 54.6107L412.745 53.6436L400.985 42.1379Z" fill="#121212"/>
<path d="M347.51 61.8628C346.712 61.8628 345.962 61.5592 345.397 61.008L334.761 50.6011L347.51 38.1289L358.146 48.5358C358.709 49.087 359.02 49.8201 359.02 50.6011C359.02 51.382 358.709 52.1138 358.146 52.6663L349.619 61.0093C349.057 61.5592 348.308 61.8628 347.51 61.8628ZM336.738 50.5997L346.386 60.0396C347.005 60.6455 348.012 60.6428 348.631 60.0396L357.158 51.6966C357.775 51.0907 357.775 50.1059 357.158 49.5014L347.51 40.0615L336.738 50.5997Z" fill="#121212"/>
<path d="M350.615 42.1374L338.854 53.6431L339.843 54.6102L351.604 43.1045L350.615 42.1374Z" fill="#121212"/>
<path d="M404.098 118.433L393.46 108.026C392.897 107.475 392.586 106.742 392.586 105.961C392.586 105.18 392.897 104.448 393.46 103.896L401.988 95.5527C403.116 94.4489 405.082 94.4489 406.21 95.5527L416.848 105.96L404.098 118.433ZM404.098 96.0669C403.691 96.0669 403.285 96.2187 402.975 96.521L394.447 104.864C393.829 105.47 393.829 106.455 394.447 107.059L404.096 116.499L414.868 105.961L405.219 96.521C404.91 96.2174 404.504 96.0669 404.098 96.0669Z" fill="#121212"/>
<path d="M411.757 101.954L399.996 113.459L400.984 114.426L412.745 102.921L411.757 101.954Z" fill="#121212"/>
<path d="M360.388 398.459H324.856V394.356H359.343L462.97 340.466V314.474H467.164V342.932L360.388 398.459Z" fill="#121212"/>
<path d="M353.916 385.695H324.856V381.591H352.884L449.689 332.002V312.978H453.883V334.486L353.916 385.695Z" fill="#121212"/>
<path d="M218.549 107.365H198.11V38.7515H218.549V107.365ZM199.508 105.998H217.151V40.1192H199.508V105.998Z" fill="#121212"/>
<path d="M214.821 56.0765H203.053V44.5645H214.821V56.0765ZM203.752 55.3926H214.122V45.2483H203.752V55.3926Z" fill="#121212"/>
<path d="M208.33 103.422C205.439 103.422 203.087 101.122 203.087 98.2932C203.087 95.4648 205.439 93.1643 208.33 93.1643C211.221 93.1643 213.572 95.4648 213.572 98.2932C213.572 101.122 211.221 103.422 208.33 103.422ZM208.33 93.8482C205.824 93.8482 203.786 95.8423 203.786 98.2932C203.786 100.744 205.824 102.738 208.33 102.738C210.835 102.738 212.873 100.744 212.873 98.2932C212.873 95.8423 210.835 93.8482 208.33 93.8482Z" fill="#121212"/>
<path d="M208.938 89.659C206.047 89.659 203.695 87.3585 203.695 84.53C203.695 81.7016 206.047 79.4011 208.938 79.4011C211.829 79.4011 214.18 81.7016 214.18 84.53C214.18 87.3585 211.829 89.659 208.938 89.659ZM208.938 80.085C206.432 80.085 204.394 82.0791 204.394 84.53C204.394 86.981 206.432 88.9751 208.938 88.9751C211.443 88.9751 213.481 86.981 213.481 84.53C213.481 82.0791 211.443 80.085 208.938 80.085Z" fill="#121212"/>
<path d="M326.605 123.208H322.062C321.869 123.208 321.712 123.054 321.712 122.866C321.712 122.677 321.869 122.524 322.062 122.524H325.906V122.293C325.906 122.104 326.063 121.951 326.256 121.951C326.449 121.951 326.605 122.104 326.605 122.293V123.208ZM317.868 123.208H313.674C313.481 123.208 313.324 123.054 313.324 122.866C313.324 122.677 313.481 122.524 313.674 122.524H317.868C318.061 122.524 318.217 122.677 318.217 122.866C318.217 123.054 318.061 123.208 317.868 123.208ZM309.48 123.208H305.285C305.093 123.208 304.936 123.054 304.936 122.866C304.936 122.677 305.093 122.524 305.285 122.524H309.48C309.672 122.524 309.829 122.677 309.829 122.866C309.829 123.054 309.672 123.208 309.48 123.208ZM301.091 123.208H296.897C296.704 123.208 296.548 123.054 296.548 122.866C296.548 122.677 296.704 122.524 296.897 122.524H301.091C301.284 122.524 301.441 122.677 301.441 122.866C301.441 123.054 301.284 123.208 301.091 123.208ZM292.703 123.208H288.509C288.316 123.208 288.16 123.054 288.16 122.866C288.16 122.677 288.316 122.524 288.509 122.524H292.703C292.896 122.524 293.053 122.677 293.053 122.866C293.053 123.054 292.896 123.208 292.703 123.208ZM284.315 123.208H280.121C279.928 123.208 279.771 123.054 279.771 122.866C279.771 122.677 279.928 122.524 280.121 122.524H284.315C284.508 122.524 284.665 122.677 284.665 122.866C284.665 123.054 284.508 123.208 284.315 123.208ZM275.927 123.208H271.733C271.54 123.208 271.383 123.054 271.383 122.866C271.383 122.677 271.54 122.524 271.733 122.524H275.927C276.12 122.524 276.276 122.677 276.276 122.866C276.276 123.054 276.12 123.208 275.927 123.208ZM267.539 123.208H263.345C263.152 123.208 262.995 123.054 262.995 122.866C262.995 122.677 263.152 122.524 263.345 122.524H267.539C267.732 122.524 267.888 122.677 267.888 122.866C267.888 123.054 267.732 123.208 267.539 123.208ZM259.151 123.208H254.957C254.764 123.208 254.607 123.054 254.607 122.866C254.607 122.677 254.764 122.524 254.957 122.524H259.151C259.344 122.524 259.5 122.677 259.5 122.866C259.5 123.054 259.344 123.208 259.151 123.208ZM250.763 123.208H246.568C246.376 123.208 246.219 123.054 246.219 122.866C246.219 122.677 246.376 122.524 246.568 122.524H250.763C250.955 122.524 251.112 122.677 251.112 122.866C251.112 123.054 250.955 123.208 250.763 123.208ZM242.374 123.208H238.18C237.987 123.208 237.831 123.054 237.831 122.866C237.831 122.677 237.987 122.524 238.18 122.524H242.374C242.567 122.524 242.724 122.677 242.724 122.866C242.724 123.054 242.567 123.208 242.374 123.208ZM233.986 123.208H232.646V119.732C232.646 119.543 232.802 119.39 232.995 119.39C233.188 119.39 233.345 119.543 233.345 119.732V122.524H233.986C234.179 122.524 234.336 122.677 234.336 122.866C234.336 123.054 234.179 123.208 233.986 123.208ZM326.256 118.531C326.063 118.531 325.906 118.378 325.906 118.189V114.086C325.906 113.898 326.063 113.744 326.256 113.744C326.449 113.744 326.605 113.898 326.605 114.086V118.189C326.605 118.378 326.449 118.531 326.256 118.531ZM232.995 115.972C232.802 115.972 232.646 115.819 232.646 115.63V111.527C232.646 111.339 232.802 111.185 232.995 111.185C233.188 111.185 233.345 111.339 233.345 111.527V115.63C233.345 115.819 233.188 115.972 232.995 115.972ZM326.256 110.325C326.063 110.325 325.906 110.172 325.906 109.983V105.88C325.906 105.691 326.063 105.538 326.256 105.538C326.449 105.538 326.605 105.691 326.605 105.88V109.983C326.605 110.172 326.449 110.325 326.256 110.325ZM232.995 107.766C232.802 107.766 232.646 107.613 232.646 107.424V103.321C232.646 103.132 232.802 102.979 232.995 102.979C233.188 102.979 233.345 103.132 233.345 103.321V107.424C233.345 107.613 233.188 107.766 232.995 107.766ZM326.256 102.119C326.063 102.119 325.906 101.966 325.906 101.777V97.6738C325.906 97.485 326.063 97.3318 326.256 97.3318C326.449 97.3318 326.605 97.485 326.605 97.6738V101.777C326.605 101.966 326.449 102.119 326.256 102.119ZM232.995 99.5598C232.802 99.5598 232.646 99.4066 232.646 99.2179V95.1148C232.646 94.926 232.802 94.7728 232.995 94.7728C233.188 94.7728 233.345 94.926 233.345 95.1148V99.2179C233.345 99.4066 233.188 99.5598 232.995 99.5598ZM326.256 93.9125C326.063 93.9125 325.906 93.7594 325.906 93.5706V89.4675C325.906 89.2787 326.063 89.1256 326.256 89.1256C326.449 89.1256 326.605 89.2787 326.605 89.4675V93.5706C326.605 93.7594 326.449 93.9125 326.256 93.9125ZM232.995 91.3536C232.802 91.3536 232.646 91.2004 232.646 91.0116V86.9085C232.646 86.7198 232.802 86.5666 232.995 86.5666C233.188 86.5666 233.345 86.7198 233.345 86.9085V91.0116C233.345 91.2004 233.188 91.3536 232.995 91.3536ZM326.256 85.7063C326.063 85.7063 325.906 85.5531 325.906 85.3644V81.2612C325.906 81.0725 326.063 80.9193 326.256 80.9193C326.449 80.9193 326.605 81.0725 326.605 81.2612V85.3644C326.605 85.5531 326.449 85.7063 326.256 85.7063ZM232.995 83.1473C232.802 83.1473 232.646 82.9941 232.646 82.8054V78.7022C232.646 78.5135 232.802 78.3603 232.995 78.3603C233.188 78.3603 233.345 78.5135 233.345 78.7022V82.8054C233.345 82.9941 233.188 83.1473 232.995 83.1473ZM326.256 77.5C326.063 77.5 325.906 77.3468 325.906 77.1581V73.055C325.906 72.8662 326.063 72.713 326.256 72.713C326.449 72.713 326.605 72.8662 326.605 73.055V77.1581C326.605 77.3468 326.449 77.5 326.256 77.5ZM232.995 74.941C232.802 74.941 232.646 74.7878 232.646 74.5991V70.496C232.646 70.3072 232.802 70.154 232.995 70.154C233.188 70.154 233.345 70.3072 233.345 70.496V74.5991C233.345 74.7878 233.188 74.941 232.995 74.941ZM326.256 69.2937C326.063 69.2937 325.906 69.1406 325.906 68.9518V64.8487C325.906 64.6599 326.063 64.5068 326.256 64.5068C326.449 64.5068 326.605 64.6599 326.605 64.8487V68.9518C326.605 69.1406 326.449 69.2937 326.256 69.2937ZM232.995 66.7348C232.802 66.7348 232.646 66.5816 232.646 66.3928V62.2897C232.646 62.101 232.802 61.9478 232.995 61.9478C233.188 61.9478 233.345 62.101 233.345 62.2897V66.3928C233.345 66.5816 233.188 66.7348 232.995 66.7348ZM326.256 61.0875C326.063 61.0875 325.906 60.9343 325.906 60.7456V56.6424C325.906 56.4537 326.063 56.3005 326.256 56.3005C326.449 56.3005 326.605 56.4537 326.605 56.6424V60.7456C326.605 60.9343 326.449 61.0875 326.256 61.0875ZM232.995 58.5285C232.802 58.5285 232.646 58.3753 232.646 58.1866V54.0834C232.646 53.8947 232.802 53.7415 232.995 53.7415C233.188 53.7415 233.345 53.8947 233.345 54.0834V58.1866C233.345 58.3753 233.188 58.5285 232.995 58.5285ZM326.256 52.8812C326.063 52.8812 325.906 52.728 325.906 52.5393V48.4362C325.906 48.2474 326.063 48.0942 326.256 48.0942C326.449 48.0942 326.605 48.2474 326.605 48.4362V52.5393C326.605 52.728 326.449 52.8812 326.256 52.8812ZM232.995 50.3222C232.802 50.3222 232.646 50.169 232.646 49.9803V45.8772C232.646 45.6884 232.802 45.5352 232.995 45.5352C233.188 45.5352 233.345 45.6884 233.345 45.8772V49.9803C233.345 50.169 233.188 50.3222 232.995 50.3222ZM326.256 44.6749C326.063 44.6749 325.906 44.5218 325.906 44.333V40.2299C325.906 40.0411 326.063 39.888 326.256 39.888C326.449 39.888 326.605 40.0411 326.605 40.2299V44.333C326.605 44.5218 326.449 44.6749 326.256 44.6749ZM232.995 42.116C232.802 42.116 232.646 41.9628 232.646 41.774V37.6709C232.646 37.4821 232.802 37.329 232.995 37.329C233.188 37.329 233.345 37.4821 233.345 37.6709V41.774C233.345 41.9628 233.188 42.116 232.995 42.116ZM324.971 37.7256H320.777C320.584 37.7256 320.427 37.5724 320.427 37.3837C320.427 37.1949 320.584 37.0417 320.777 37.0417H324.971C325.164 37.0417 325.321 37.1949 325.321 37.3837C325.321 37.5724 325.164 37.7256 324.971 37.7256ZM316.583 37.7256H312.389C312.196 37.7256 312.039 37.5724 312.039 37.3837C312.039 37.1949 312.196 37.0417 312.389 37.0417H316.583C316.776 37.0417 316.932 37.1949 316.932 37.3837C316.932 37.5724 316.776 37.7256 316.583 37.7256ZM308.195 37.7256H304.001C303.808 37.7256 303.651 37.5724 303.651 37.3837C303.651 37.1949 303.808 37.0417 304.001 37.0417H308.195C308.388 37.0417 308.544 37.1949 308.544 37.3837C308.544 37.5724 308.388 37.7256 308.195 37.7256ZM299.807 37.7256H295.613C295.42 37.7256 295.263 37.5724 295.263 37.3837C295.263 37.1949 295.42 37.0417 295.613 37.0417H299.807C300 37.0417 300.156 37.1949 300.156 37.3837C300.156 37.5724 300 37.7256 299.807 37.7256ZM291.418 37.7256H287.224C287.031 37.7256 286.875 37.5724 286.875 37.3837C286.875 37.1949 287.031 37.0417 287.224 37.0417H291.418C291.611 37.0417 291.768 37.1949 291.768 37.3837C291.768 37.5724 291.611 37.7256 291.418 37.7256ZM283.03 37.7256H278.836C278.643 37.7256 278.487 37.5724 278.487 37.3837C278.487 37.1949 278.643 37.0417 278.836 37.0417H283.03C283.223 37.0417 283.38 37.1949 283.38 37.3837C283.38 37.5724 283.223 37.7256 283.03 37.7256ZM274.642 37.7256H270.448C270.255 37.7256 270.099 37.5724 270.099 37.3837C270.099 37.1949 270.255 37.0417 270.448 37.0417H274.642C274.835 37.0417 274.992 37.1949 274.992 37.3837C274.992 37.5724 274.835 37.7256 274.642 37.7256ZM266.254 37.7256H262.06C261.867 37.7256 261.71 37.5724 261.71 37.3837C261.71 37.1949 261.867 37.0417 262.06 37.0417H266.254C266.447 37.0417 266.604 37.1949 266.604 37.3837C266.604 37.5724 266.447 37.7256 266.254 37.7256ZM257.866 37.7256H253.672C253.479 37.7256 253.322 37.5724 253.322 37.3837C253.322 37.1949 253.479 37.0417 253.672 37.0417H257.866C258.059 37.0417 258.215 37.1949 258.215 37.3837C258.215 37.5724 258.059 37.7256 257.866 37.7256ZM249.478 37.7256H245.284C245.091 37.7256 244.934 37.5724 244.934 37.3837C244.934 37.1949 245.091 37.0417 245.284 37.0417H249.478C249.671 37.0417 249.827 37.1949 249.827 37.3837C249.827 37.5724 249.671 37.7256 249.478 37.7256ZM241.09 37.7256H236.895C236.703 37.7256 236.546 37.5724 236.546 37.3837C236.546 37.1949 236.703 37.0417 236.895 37.0417H241.09C241.282 37.0417 241.439 37.1949 241.439 37.3837C241.439 37.5724 241.282 37.7256 241.09 37.7256Z" fill="#121212"/>
<path d="M238.687 168.216H210.988C209.603 168.216 208.476 167.114 208.476 165.759V138.66C208.476 137.305 209.603 136.202 210.988 136.202H238.687C240.073 136.202 241.2 137.305 241.2 138.66V165.759C241.198 167.114 240.071 168.216 238.687 168.216ZM210.988 137.57C210.375 137.57 209.874 138.058 209.874 138.66V165.759C209.874 166.359 210.373 166.849 210.988 166.849H238.687C239.301 166.849 239.802 166.36 239.802 165.759V138.66C239.802 138.06 239.303 137.57 238.687 137.57H210.988Z" fill="#121212"/>
<path d="M239.037 168.216H216.209C215.016 168.216 214.048 167.267 214.048 166.102V162.707C214.048 161.54 215.018 160.593 216.209 160.593H239.037C240.23 160.593 241.199 161.542 241.199 162.707V166.102C241.199 167.267 240.23 168.216 239.037 168.216ZM216.209 161.959C215.788 161.959 215.446 162.294 215.446 162.706V166.1C215.446 166.512 215.788 166.847 216.209 166.847H239.037C239.458 166.847 239.801 166.512 239.801 166.1V162.706C239.801 162.294 239.458 161.959 239.037 161.959H216.209Z" fill="#121212"/>
<path d="M239.037 143.827H216.209C215.016 143.827 214.048 142.878 214.048 141.713V138.318C214.048 137.151 215.018 136.204 216.209 136.204H239.037C240.23 136.204 241.199 137.153 241.199 138.318V141.713C241.199 142.879 240.23 143.827 239.037 143.827ZM216.209 137.57C215.788 137.57 215.446 137.905 215.446 138.317V141.711C215.446 142.123 215.788 142.458 216.209 142.458H239.037C239.458 142.458 239.801 142.123 239.801 141.711V138.317C239.801 137.905 239.458 137.57 239.037 137.57H216.209Z" fill="#121212"/>
<path d="M219.645 143.144H218.247V161.274H219.645V143.144Z" fill="#121212"/>
<path d="M308.39 365.912H280.691C279.306 365.912 278.179 364.809 278.179 363.455V336.357C278.179 335.002 279.306 333.899 280.691 333.899H308.39C309.775 333.899 310.901 335.002 310.901 336.357V363.455C310.901 364.809 309.775 365.912 308.39 365.912ZM280.69 335.267C280.076 335.267 279.576 335.755 279.576 336.357V363.455C279.576 364.054 280.075 364.544 280.69 364.544H308.389C309.001 364.544 309.502 364.056 309.502 363.455V336.357C309.502 335.757 309.003 335.267 308.389 335.267H280.69Z" fill="#121212"/>
<path d="M303.17 341.524H280.342C279.149 341.524 278.179 340.576 278.179 339.41V336.015C278.179 334.848 279.149 333.899 280.342 333.899H303.17C304.363 333.899 305.332 334.848 305.332 336.015V339.41C305.33 340.575 304.361 341.524 303.17 341.524ZM280.341 335.267C279.918 335.267 279.576 335.602 279.576 336.015V339.41C279.576 339.821 279.918 340.156 280.341 340.156H303.169C303.59 340.156 303.932 339.821 303.932 339.41V336.015C303.932 335.602 303.59 335.267 303.169 335.267H280.341Z" fill="#121212"/>
<path d="M303.17 365.912H280.342C279.149 365.912 278.179 364.964 278.179 363.798V360.403C278.179 359.236 279.149 358.289 280.342 358.289H303.17C304.363 358.289 305.332 359.236 305.332 360.403V363.798C305.33 364.964 304.361 365.912 303.17 365.912ZM280.341 359.656C279.918 359.656 279.576 359.991 279.576 360.403V363.798C279.576 364.209 279.918 364.544 280.341 364.544H303.169C303.59 364.544 303.932 364.209 303.932 363.798V360.403C303.932 359.991 303.59 359.656 303.169 359.656H280.341Z" fill="#121212"/>
<path d="M301.13 340.84H299.732V358.972H301.13V340.84Z" fill="#121212"/>
<path d="M112.851 321.133C112.466 321.133 112.152 320.827 112.152 320.449V316.346C112.152 315.969 112.466 315.662 112.851 315.662C113.237 315.662 113.55 315.969 113.55 316.346V320.449C113.55 320.827 113.239 321.133 112.851 321.133ZM112.851 312.927C112.466 312.927 112.152 312.621 112.152 312.243V308.14C112.152 307.763 112.466 307.456 112.851 307.456C113.237 307.456 113.55 307.763 113.55 308.14V312.243C113.55 312.621 113.239 312.927 112.851 312.927ZM112.851 304.721C112.466 304.721 112.152 304.414 112.152 304.037V299.934C112.152 299.556 112.466 299.25 112.851 299.25C113.237 299.25 113.55 299.556 113.55 299.934V304.037C113.55 304.414 113.239 304.721 112.851 304.721ZM112.851 296.515C112.466 296.515 112.152 296.208 112.152 295.831V291.728C112.152 291.35 112.466 291.044 112.851 291.044C113.237 291.044 113.55 291.35 113.55 291.728V295.831C113.55 296.208 113.239 296.515 112.851 296.515ZM112.851 288.308C112.466 288.308 112.152 288.002 112.152 287.624V283.521C112.152 283.144 112.466 282.837 112.851 282.837C113.237 282.837 113.55 283.144 113.55 283.521V287.624C113.55 288.002 113.239 288.308 112.851 288.308Z" fill="#121212"/>
<path d="M108.593 323.141C68.9784 323.141 68.285 281.623 68.2836 281.203L68.2794 280.515H108.593V281.883H69.6984C69.9095 287.396 72.6748 321.774 108.593 321.774V323.141Z" fill="#121212"/>
<path d="M114.921 325.744H110.726V410.997H114.921V325.744Z" fill="#121212"/>
<path d="M102.279 404.957H37.2712C34.9589 404.957 33.0771 403.116 33.0771 400.854V379.312C33.0771 377.05 34.9589 375.209 37.2712 375.209H102.279C104.592 375.209 106.473 377.05 106.473 379.312V400.854C106.473 403.116 104.592 404.957 102.279 404.957ZM37.2712 376.577C35.7292 376.577 34.4752 377.804 34.4752 379.312V400.854C34.4752 402.362 35.7292 403.589 37.2712 403.589H102.279C103.821 403.589 105.075 402.362 105.075 400.854V379.312C105.075 377.804 103.821 376.577 102.279 376.577H37.2712Z" fill="#121212"/>
<path d="M41.9463 393.117C40.2352 393.117 38.8441 391.757 38.8441 390.083C38.8441 388.408 40.2352 387.048 41.9463 387.048C43.6575 387.048 45.0486 388.408 45.0486 390.083C45.0486 391.757 43.6561 393.117 41.9463 393.117ZM41.9463 388.415C41.0069 388.415 40.2421 389.163 40.2421 390.083C40.2421 391.002 41.0069 391.75 41.9463 391.75C42.8858 391.75 43.6505 391.002 43.6505 390.083C43.6505 389.163 42.8844 388.415 41.9463 388.415Z" fill="#121212"/>
<path d="M52.5964 306.877H25.6509V280.517H52.595L52.5964 306.877ZM27.0489 305.509H51.197V281.884H27.0489V305.509Z" fill="#121212"/>
<path d="M113.55 355.377H104.375C100.778 355.377 97.8505 352.514 97.8505 348.995V340.56C97.8505 337.041 100.777 334.177 104.375 334.177H113.55V355.377ZM104.376 335.545C101.551 335.545 99.2499 337.795 99.2499 340.56V348.995C99.2499 351.759 101.55 354.009 104.376 354.009H112.154V335.545H104.376Z" fill="#121212"/>
<path d="M105.512 347.426C104.019 347.426 102.802 346.238 102.802 344.776C102.802 343.314 104.017 342.125 105.512 342.125C107.006 342.125 108.221 343.314 108.221 344.776C108.221 346.238 107.006 347.426 105.512 347.426ZM105.512 343.494C104.789 343.494 104.2 344.07 104.2 344.777C104.2 345.484 104.787 346.06 105.512 346.06C106.236 346.06 106.823 345.484 106.823 344.777C106.823 344.07 106.234 343.494 105.512 343.494Z" fill="#121212"/>
<path d="M37.7664 350.59H26.6116V327.168H37.7664C39.7097 327.168 41.2908 328.715 41.2908 330.616V347.142C41.2908 349.043 39.7097 350.59 37.7664 350.59ZM28.0096 349.222H37.7664C38.938 349.222 39.8928 348.289 39.8928 347.142V330.616C39.8928 329.468 38.9394 328.535 37.7664 328.535H28.0096V349.222Z" fill="#121212"/>
<path d="M50.1233 346.8H39.8926V330.958H50.1233C54.5872 330.958 58.2207 334.511 58.2207 338.878C58.2207 343.245 54.5872 346.8 50.1233 346.8ZM41.2906 345.432H50.1233C53.8169 345.432 56.8227 342.493 56.8227 338.878C56.8227 335.264 53.8183 332.325 50.1233 332.325H41.2906V345.432Z" fill="#121212"/>
<path d="M48.6597 343.012C45.0178 343.012 42.1644 341.197 42.1644 338.88C42.1644 336.564 45.0178 334.748 48.6597 334.748C52.3015 334.748 55.1549 336.563 55.1549 338.88C55.1549 341.197 52.3015 343.012 48.6597 343.012ZM48.6597 336.116C45.8958 336.116 43.5625 337.381 43.5625 338.88C43.5625 340.379 45.8958 341.644 48.6597 341.644C51.4236 341.644 53.7568 340.377 53.7568 338.88C53.7568 337.382 51.4222 336.116 48.6597 336.116Z" fill="#121212"/>
<path d="M33.1067 341.87C31.4207 341.87 30.0479 340.529 30.0479 338.878C30.0479 337.227 31.4193 335.885 33.1067 335.885C34.7941 335.885 36.1656 337.227 36.1656 338.878C36.1656 340.529 34.7928 341.87 33.1067 341.87ZM33.1067 337.254C32.191 337.254 31.4459 337.982 31.4459 338.879C31.4459 339.776 32.191 340.504 33.1067 340.504C34.0224 340.504 34.7676 339.776 34.7676 338.879C34.7676 337.982 34.0224 337.254 33.1067 337.254Z" fill="#121212"/>
<path d="M197.904 185.578H180.021V130.34H197.904V185.578ZM181.419 184.21H196.506V131.708H181.419V184.21Z" fill="#121212"/>
<path d="M196.547 130.837L180.045 184.702L181.385 185.095L197.887 131.23L196.547 130.837Z" fill="#121212"/>
<path d="M181.393 130.831L180.053 131.223L196.538 185.094L197.878 184.701L181.393 130.831Z" fill="#121212"/>
<path d="M149.267 178.83H144.723C144.531 178.83 144.374 178.676 144.374 178.488C144.374 178.299 144.531 178.146 144.723 178.146H148.568V174.421C148.568 174.233 148.725 174.08 148.918 174.08C149.11 174.08 149.267 174.233 149.267 174.421V178.83ZM140.529 178.83H136.335C136.142 178.83 135.986 178.676 135.986 178.488C135.986 178.299 136.142 178.146 136.335 178.146H140.529C140.722 178.146 140.879 178.299 140.879 178.488C140.879 178.676 140.722 178.83 140.529 178.83ZM132.141 178.83H127.947C127.754 178.83 127.598 178.676 127.598 178.488C127.598 178.299 127.754 178.146 127.947 178.146H132.141C132.334 178.146 132.491 178.299 132.491 178.488C132.491 178.676 132.334 178.83 132.141 178.83ZM123.753 178.83H119.559C119.366 178.83 119.21 178.676 119.21 178.488C119.21 178.299 119.366 178.146 119.559 178.146H123.753C123.946 178.146 124.103 178.299 124.103 178.488C124.103 178.676 123.946 178.83 123.753 178.83ZM115.365 178.83H111.171C110.978 178.83 110.821 178.676 110.821 178.488C110.821 178.299 110.978 178.146 111.171 178.146H115.365C115.558 178.146 115.714 178.299 115.714 178.488C115.714 178.676 115.558 178.83 115.365 178.83ZM106.977 178.83H102.783C102.59 178.83 102.433 178.676 102.433 178.488C102.433 178.299 102.59 178.146 102.783 178.146H106.977C107.17 178.146 107.326 178.299 107.326 178.488C107.326 178.676 107.17 178.83 106.977 178.83ZM98.5887 178.83H94.3946C94.2017 178.83 94.0451 178.676 94.0451 178.488C94.0451 178.299 94.2017 178.146 94.3946 178.146H98.5887C98.7816 178.146 98.9382 178.299 98.9382 178.488C98.9382 178.676 98.7816 178.83 98.5887 178.83ZM90.2005 178.83H86.0064C85.8135 178.83 85.6569 178.676 85.6569 178.488C85.6569 178.299 85.8135 178.146 86.0064 178.146H90.2005C90.3934 178.146 90.55 178.299 90.55 178.488C90.55 178.676 90.3934 178.83 90.2005 178.83ZM81.8124 178.83H77.6183C77.4254 178.83 77.2688 178.676 77.2688 178.488C77.2688 178.299 77.4254 178.146 77.6183 178.146H81.8124C82.0053 178.146 82.1619 178.299 82.1619 178.488C82.1619 178.676 82.0053 178.83 81.8124 178.83ZM76.2412 176.074C76.0483 176.074 75.8917 175.92 75.8917 175.732V171.629C75.8917 171.44 76.0483 171.287 76.2412 171.287C76.4342 171.287 76.5907 171.44 76.5907 171.629V175.732C76.5907 175.92 76.4342 176.074 76.2412 176.074ZM148.918 170.662C148.725 170.662 148.568 170.508 148.568 170.32V166.217C148.568 166.028 148.725 165.875 148.918 165.875C149.11 165.875 149.267 166.028 149.267 166.217V170.32C149.267 170.508 149.11 170.662 148.918 170.662ZM76.2412 167.867C76.0483 167.867 75.8917 167.714 75.8917 167.525V163.422C75.8917 163.234 76.0483 163.08 76.2412 163.08C76.4342 163.08 76.5907 163.234 76.5907 163.422V167.525C76.5907 167.714 76.4342 167.867 76.2412 167.867ZM148.918 162.455C148.725 162.455 148.568 162.302 148.568 162.113V158.01C148.568 157.822 148.725 157.668 148.918 157.668C149.11 157.668 149.267 157.822 149.267 158.01V162.113C149.267 162.302 149.11 162.455 148.918 162.455ZM76.2412 159.661C76.0483 159.661 75.8917 159.508 75.8917 159.319V155.216C75.8917 155.027 76.0483 154.874 76.2412 154.874C76.4342 154.874 76.5907 155.027 76.5907 155.216V159.319C76.5907 159.508 76.4342 159.661 76.2412 159.661ZM148.918 154.249C148.725 154.249 148.568 154.096 148.568 153.907V149.804C148.568 149.615 148.725 149.462 148.918 149.462C149.11 149.462 149.267 149.615 149.267 149.804V153.907C149.267 154.096 149.11 154.249 148.918 154.249ZM76.2412 151.455C76.0483 151.455 75.8917 151.302 75.8917 151.113V147.01C75.8917 146.821 76.0483 146.668 76.2412 146.668C76.4342 146.668 76.5907 146.821 76.5907 147.01V151.113C76.5907 151.302 76.4342 151.455 76.2412 151.455ZM148.918 146.043C148.725 146.043 148.568 145.89 148.568 145.701V141.598C148.568 141.409 148.725 141.256 148.918 141.256C149.11 141.256 149.267 141.409 149.267 141.598V145.701C149.267 145.89 149.11 146.043 148.918 146.043ZM76.2412 143.249C76.0483 143.249 75.8917 143.095 75.8917 142.907V138.804C75.8917 138.615 76.0483 138.462 76.2412 138.462C76.4342 138.462 76.5907 138.615 76.5907 138.804V142.907C76.5907 143.095 76.4342 143.249 76.2412 143.249ZM148.918 137.837C148.725 137.837 148.568 137.683 148.568 137.495V133.391C148.568 133.203 148.725 133.05 148.918 133.05C149.11 133.05 149.267 133.203 149.267 133.391V137.495C149.267 137.683 149.11 137.837 148.918 137.837ZM76.2412 135.042C76.0483 135.042 75.8917 134.889 75.8917 134.7V130.597C75.8917 130.408 76.0483 130.255 76.2412 130.255C76.4342 130.255 76.5907 130.408 76.5907 130.597V134.7C76.5907 134.889 76.4342 135.042 76.2412 135.042ZM148.918 129.63C148.725 129.63 148.568 129.477 148.568 129.288V125.185C148.568 124.996 148.725 124.843 148.918 124.843C149.11 124.843 149.267 124.996 149.267 125.185V129.288C149.267 129.477 149.11 129.63 148.918 129.63ZM76.2412 126.836C76.0483 126.836 75.8917 126.683 75.8917 126.494V122.391C75.8917 122.202 76.0483 122.049 76.2412 122.049C76.4342 122.049 76.5907 122.202 76.5907 122.391V126.494C76.5907 126.683 76.4342 126.836 76.2412 126.836ZM148.918 121.424C148.725 121.424 148.568 121.271 148.568 121.082V116.979C148.568 116.79 148.725 116.637 148.918 116.637C149.11 116.637 149.267 116.79 149.267 116.979V121.082C149.267 121.271 149.11 121.424 148.918 121.424ZM76.2412 118.63C76.0483 118.63 75.8917 118.477 75.8917 118.288V114.185C75.8917 113.996 76.0483 113.843 76.2412 113.843C76.4342 113.843 76.5907 113.996 76.5907 114.185V118.288C76.5907 118.477 76.4342 118.63 76.2412 118.63ZM148.918 113.218C148.725 113.218 148.568 113.065 148.568 112.876V108.773C148.568 108.584 148.725 108.431 148.918 108.431C149.11 108.431 149.267 108.584 149.267 108.773V112.876C149.267 113.065 149.11 113.218 148.918 113.218ZM76.2412 110.424C76.0483 110.424 75.8917 110.27 75.8917 110.082V105.978C75.8917 105.79 76.0483 105.637 76.2412 105.637C76.4342 105.637 76.5907 105.79 76.5907 105.978V110.082C76.5907 110.27 76.4342 110.424 76.2412 110.424ZM148.918 105.011C148.725 105.011 148.568 104.858 148.568 104.67V100.566C148.568 100.378 148.725 100.224 148.918 100.224C149.11 100.224 149.267 100.378 149.267 100.566V104.67C149.267 104.858 149.11 105.011 148.918 105.011ZM76.2412 102.217C76.0483 102.217 75.8917 102.064 75.8917 101.875V97.7722C75.8917 97.5834 76.0483 97.4302 76.2412 97.4302C76.4342 97.4302 76.5907 97.5834 76.5907 97.7722V101.875C76.5907 102.064 76.4342 102.217 76.2412 102.217ZM148.918 96.8052C148.725 96.8052 148.568 96.652 148.568 96.4633V92.3602C148.568 92.1714 148.725 92.0182 148.918 92.0182C149.11 92.0182 149.267 92.1714 149.267 92.3602V96.4633C149.267 96.652 149.11 96.8052 148.918 96.8052ZM76.2412 94.011C76.0483 94.011 75.8917 93.8578 75.8917 93.669V89.5659C75.8917 89.3772 76.0483 89.224 76.2412 89.224C76.4342 89.224 76.5907 89.3772 76.5907 89.5659V93.669C76.5907 93.8578 76.4342 94.011 76.2412 94.011ZM148.918 88.5989C148.725 88.5989 148.568 88.4458 148.568 88.257V84.1539C148.568 83.9651 148.725 83.812 148.918 83.812C149.11 83.812 149.267 83.9651 149.267 84.1539V88.257C149.267 88.4458 149.11 88.5989 148.918 88.5989ZM76.2412 85.8047C76.0483 85.8047 75.8917 85.6515 75.8917 85.4628V81.3596C75.8917 81.1709 76.0483 81.0177 76.2412 81.0177C76.4342 81.0177 76.5907 81.1709 76.5907 81.3596V85.4628C76.5907 85.6515 76.4342 85.8047 76.2412 85.8047ZM148.918 80.3927C148.725 80.3927 148.568 80.2395 148.568 80.0508V75.9476C148.568 75.7589 148.725 75.6057 148.918 75.6057C149.11 75.6057 149.267 75.7589 149.267 75.9476V80.0508C149.267 80.2395 149.11 80.3927 148.918 80.3927ZM76.2412 77.5984C76.0483 77.5984 75.8917 77.4452 75.8917 77.2565V73.1534C75.8917 72.9646 76.0483 72.8114 76.2412 72.8114C76.4342 72.8114 76.5907 72.9646 76.5907 73.1534V77.2565C76.5907 77.4452 76.4342 77.5984 76.2412 77.5984ZM148.918 72.1864C148.725 72.1864 148.568 72.0332 148.568 71.8445V67.7414C148.568 67.5526 148.725 67.3994 148.918 67.3994C149.11 67.3994 149.267 67.5526 149.267 67.7414V71.8445C149.267 72.0332 149.11 72.1864 148.918 72.1864ZM76.2412 69.3922C76.0483 69.3922 75.8917 69.239 75.8917 69.0502V64.9471C75.8917 64.7584 76.0483 64.6052 76.2412 64.6052C76.4342 64.6052 76.5907 64.7584 76.5907 64.9471V69.0502C76.5907 69.239 76.4342 69.3922 76.2412 69.3922ZM148.918 63.9802C148.725 63.9802 148.568 63.827 148.568 63.6382V59.5351C148.568 59.3463 148.725 59.1932 148.918 59.1932C149.11 59.1932 149.267 59.3463 149.267 59.5351V63.6382C149.267 63.827 149.11 63.9802 148.918 63.9802ZM76.2412 61.1859C76.0483 61.1859 75.8917 61.0327 75.8917 60.844V56.7408C75.8917 56.5521 76.0483 56.3989 76.2412 56.3989C76.4342 56.3989 76.5907 56.5521 76.5907 56.7408V60.844C76.5907 61.0327 76.4342 61.1859 76.2412 61.1859ZM148.918 55.7739C148.725 55.7739 148.568 55.6207 148.568 55.432V51.3288C148.568 51.1401 148.725 50.9869 148.918 50.9869C149.11 50.9869 149.267 51.1401 149.267 51.3288V55.432C149.267 55.6207 149.11 55.7739 148.918 55.7739ZM76.2412 52.9796C76.0483 52.9796 75.8917 52.8264 75.8917 52.6377V48.5346C75.8917 48.3458 76.0483 48.1926 76.2412 48.1926C76.4342 48.1926 76.5907 48.3458 76.5907 48.5346V52.6377C76.5907 52.8264 76.4342 52.9796 76.2412 52.9796ZM148.918 47.5676C148.725 47.5676 148.568 47.4144 148.568 47.2257V43.1225C148.568 42.9338 148.725 42.7806 148.918 42.7806C149.11 42.7806 149.267 42.9338 149.267 43.1225V47.2257C149.267 47.4144 149.11 47.5676 148.918 47.5676ZM76.2412 44.7734C76.0483 44.7734 75.8917 44.6202 75.8917 44.4314V40.3283C75.8917 40.1396 76.0483 39.9864 76.2412 39.9864C76.4342 39.9864 76.5907 40.1396 76.5907 40.3283V44.4314C76.5907 44.6202 76.4342 44.7734 76.2412 44.7734ZM148.918 39.3613C148.725 39.3613 148.568 39.2082 148.568 39.0194V34.9163C148.568 34.7275 148.725 34.5743 148.918 34.5743C149.11 34.5743 149.267 34.7275 149.267 34.9163V39.0194C149.267 39.2082 149.11 39.3613 148.918 39.3613ZM76.2412 36.5671C76.0483 36.5671 75.8917 36.4139 75.8917 36.2252V33.8508H78.3578C78.5508 33.8508 78.7073 34.004 78.7073 34.1928C78.7073 34.3815 78.5508 34.5347 78.3578 34.5347H76.5907V36.2252C76.5907 36.4139 76.4342 36.5671 76.2412 36.5671ZM145.462 34.5347H141.268C141.075 34.5347 140.918 34.3815 140.918 34.1928C140.918 34.004 141.075 33.8508 141.268 33.8508H145.462C145.655 33.8508 145.811 34.004 145.811 34.1928C145.811 34.3815 145.656 34.5347 145.462 34.5347ZM137.073 34.5347H132.879C132.686 34.5347 132.53 34.3815 132.53 34.1928C132.53 34.004 132.686 33.8508 132.879 33.8508H137.073C137.266 33.8508 137.423 34.004 137.423 34.1928C137.423 34.3815 137.268 34.5347 137.073 34.5347ZM128.685 34.5347H124.491C124.298 34.5347 124.142 34.3815 124.142 34.1928C124.142 34.004 124.298 33.8508 124.491 33.8508H128.685C128.878 33.8508 129.035 34.004 129.035 34.1928C129.035 34.3815 128.88 34.5347 128.685 34.5347ZM120.297 34.5347H116.103C115.91 34.5347 115.754 34.3815 115.754 34.1928C115.754 34.004 115.91 33.8508 116.103 33.8508H120.297C120.49 33.8508 120.647 34.004 120.647 34.1928C120.647 34.3815 120.492 34.5347 120.297 34.5347ZM111.909 34.5347H107.715C107.522 34.5347 107.365 34.3815 107.365 34.1928C107.365 34.004 107.522 33.8508 107.715 33.8508H111.909C112.102 33.8508 112.259 34.004 112.259 34.1928C112.259 34.3815 112.103 34.5347 111.909 34.5347ZM103.521 34.5347H99.3268C99.1339 34.5347 98.9773 34.3815 98.9773 34.1928C98.9773 34.004 99.1339 33.8508 99.3268 33.8508H103.521C103.714 33.8508 103.87 34.004 103.87 34.1928C103.87 34.3815 103.715 34.5347 103.521 34.5347ZM95.1327 34.5347H90.9387C90.7457 34.5347 90.5892 34.3815 90.5892 34.1928C90.5892 34.004 90.7457 33.8508 90.9387 33.8508H95.1327C95.3257 33.8508 95.4823 34.004 95.4823 34.1928C95.4823 34.3815 95.3271 34.5347 95.1327 34.5347ZM86.7446 34.5347H82.5505C82.3576 34.5347 82.201 34.3815 82.201 34.1928C82.201 34.004 82.3576 33.8508 82.5505 33.8508H86.7446C86.9375 33.8508 87.0941 34.004 87.0941 34.1928C87.0941 34.3815 86.9389 34.5347 86.7446 34.5347Z" fill="#121212"/>
<path d="M270.276 271.947H198.809V276.05H270.276V271.947Z" fill="#121212"/>
<path d="M264.573 388.073H260.03C259.837 388.073 259.68 387.92 259.68 387.731C259.68 387.543 259.837 387.389 260.03 387.389H263.874V387.161C263.874 386.972 264.031 386.819 264.224 386.819C264.417 386.819 264.573 386.972 264.573 387.161V388.073ZM255.836 388.073H251.641C251.449 388.073 251.292 387.92 251.292 387.731C251.292 387.543 251.449 387.389 251.641 387.389H255.836C256.028 387.389 256.185 387.543 256.185 387.731C256.185 387.92 256.028 388.073 255.836 388.073ZM247.447 388.073H243.253C243.06 388.073 242.904 387.92 242.904 387.731C242.904 387.543 243.06 387.389 243.253 387.389H247.447C247.64 387.389 247.797 387.543 247.797 387.731C247.797 387.92 247.64 388.073 247.447 388.073ZM239.059 388.073H234.865C234.672 388.073 234.516 387.92 234.516 387.731C234.516 387.543 234.672 387.389 234.865 387.389H239.059C239.252 387.389 239.409 387.543 239.409 387.731C239.409 387.92 239.252 388.073 239.059 388.073ZM230.671 388.073H226.477C226.284 388.073 226.128 387.92 226.128 387.731C226.128 387.543 226.284 387.389 226.477 387.389H230.671C230.864 387.389 231.021 387.543 231.021 387.731C231.021 387.92 230.864 388.073 230.671 388.073ZM222.283 388.073H218.089C217.896 388.073 217.739 387.92 217.739 387.731C217.739 387.543 217.896 387.389 218.089 387.389H222.283C222.476 387.389 222.632 387.543 222.632 387.731C222.632 387.92 222.476 388.073 222.283 388.073ZM213.895 388.073H209.701C209.508 388.073 209.351 387.92 209.351 387.731C209.351 387.543 209.508 387.389 209.701 387.389H213.895C214.088 387.389 214.244 387.543 214.244 387.731C214.244 387.92 214.088 388.073 213.895 388.073ZM205.507 388.073H201.313C201.12 388.073 200.963 387.92 200.963 387.731C200.963 387.543 201.12 387.389 201.313 387.389H205.507C205.7 387.389 205.856 387.543 205.856 387.731C205.856 387.92 205.7 388.073 205.507 388.073ZM197.119 388.073H192.924C192.732 388.073 192.575 387.92 192.575 387.731C192.575 387.543 192.732 387.389 192.924 387.389H197.119C197.311 387.389 197.468 387.543 197.468 387.731C197.468 387.92 197.311 388.073 197.119 388.073ZM188.73 388.073H184.536C184.343 388.073 184.187 387.92 184.187 387.731C184.187 387.543 184.343 387.389 184.536 387.389H188.73C188.923 387.389 189.08 387.543 189.08 387.731C189.08 387.92 188.923 388.073 188.73 388.073ZM180.342 388.073H176.148C175.955 388.073 175.799 387.92 175.799 387.731C175.799 387.543 175.955 387.389 176.148 387.389H180.342C180.535 387.389 180.692 387.543 180.692 387.731C180.692 387.92 180.535 388.073 180.342 388.073ZM171.954 388.073H167.76C167.567 388.073 167.41 387.92 167.41 387.731C167.41 387.543 167.567 387.389 167.76 387.389H171.954C172.147 387.389 172.304 387.543 172.304 387.731C172.304 387.92 172.147 388.073 171.954 388.073ZM163.566 388.073H159.372C159.179 388.073 159.022 387.92 159.022 387.731C159.022 387.543 159.179 387.389 159.372 387.389H163.566C163.759 387.389 163.915 387.543 163.915 387.731C163.915 387.92 163.759 388.073 163.566 388.073ZM158.856 384.475C158.663 384.475 158.506 384.322 158.506 384.133V380.03C158.506 379.841 158.663 379.688 158.856 379.688C159.049 379.688 159.205 379.841 159.205 380.03V384.133C159.205 384.322 159.05 384.475 158.856 384.475ZM264.224 383.4C264.031 383.4 263.874 383.247 263.874 383.058V378.955C263.874 378.766 264.031 378.613 264.224 378.613C264.417 378.613 264.573 378.766 264.573 378.955V383.058C264.573 383.247 264.417 383.4 264.224 383.4ZM158.856 376.269C158.663 376.269 158.506 376.115 158.506 375.927V371.823C158.506 371.635 158.663 371.482 158.856 371.482C159.049 371.482 159.205 371.635 159.205 371.823V375.927C159.205 376.115 159.05 376.269 158.856 376.269ZM264.224 375.193C264.031 375.193 263.874 375.04 263.874 374.852V370.748C263.874 370.56 264.031 370.406 264.224 370.406C264.417 370.406 264.573 370.56 264.573 370.748V374.852C264.573 375.04 264.417 375.193 264.224 375.193ZM158.856 368.062C158.663 368.062 158.506 367.909 158.506 367.72V363.617C158.506 363.428 158.663 363.275 158.856 363.275C159.049 363.275 159.205 363.428 159.205 363.617V367.72C159.205 367.909 159.05 368.062 158.856 368.062ZM264.224 366.987C264.031 366.987 263.874 366.834 263.874 366.645V362.542C263.874 362.353 264.031 362.2 264.224 362.2C264.417 362.2 264.573 362.353 264.573 362.542V366.645C264.573 366.834 264.417 366.987 264.224 366.987ZM158.856 359.856C158.663 359.856 158.506 359.703 158.506 359.514V355.411C158.506 355.222 158.663 355.069 158.856 355.069C159.049 355.069 159.205 355.222 159.205 355.411V359.514C159.205 359.703 159.05 359.856 158.856 359.856ZM264.224 358.781C264.031 358.781 263.874 358.628 263.874 358.439V354.336C263.874 354.147 264.031 353.994 264.224 353.994C264.417 353.994 264.573 354.147 264.573 354.336V358.439C264.573 358.628 264.417 358.781 264.224 358.781ZM158.856 351.65C158.663 351.65 158.506 351.497 158.506 351.308V347.205C158.506 347.016 158.663 346.863 158.856 346.863C159.049 346.863 159.205 347.016 159.205 347.205V351.308C159.205 351.497 159.05 351.65 158.856 351.65ZM264.224 350.575C264.031 350.575 263.874 350.421 263.874 350.233V346.13C263.874 345.941 264.031 345.788 264.224 345.788C264.417 345.788 264.573 345.941 264.573 346.13V350.233C264.573 350.421 264.417 350.575 264.224 350.575ZM158.856 343.443C158.663 343.443 158.506 343.29 158.506 343.102V338.998C158.506 338.81 158.663 338.656 158.856 338.656C159.049 338.656 159.205 338.81 159.205 338.998V343.102C159.205 343.29 159.05 343.443 158.856 343.443ZM264.224 342.368C264.031 342.368 263.874 342.215 263.874 342.026V337.923C263.874 337.735 264.031 337.581 264.224 337.581C264.417 337.581 264.573 337.735 264.573 337.923V342.026C264.573 342.215 264.417 342.368 264.224 342.368ZM158.856 335.237C158.663 335.237 158.506 335.084 158.506 334.895V330.792C158.506 330.603 158.663 330.45 158.856 330.45C159.049 330.45 159.205 330.603 159.205 330.792V334.895C159.205 335.084 159.05 335.237 158.856 335.237ZM264.224 334.162C264.031 334.162 263.874 334.009 263.874 333.82V330.848H263.417C263.224 330.848 263.068 330.695 263.068 330.506C263.068 330.317 263.224 330.164 263.417 330.164H264.573V333.82C264.573 334.009 264.417 334.162 264.224 334.162ZM259.223 330.848H255.029C254.836 330.848 254.679 330.695 254.679 330.506C254.679 330.317 254.836 330.164 255.029 330.164H259.223C259.416 330.164 259.572 330.317 259.572 330.506C259.572 330.695 259.416 330.848 259.223 330.848ZM250.835 330.848H246.641C246.448 330.848 246.291 330.695 246.291 330.506C246.291 330.317 246.448 330.164 246.641 330.164H250.835C251.028 330.164 251.184 330.317 251.184 330.506C251.184 330.695 251.028 330.848 250.835 330.848ZM242.447 330.848H238.253C238.06 330.848 237.903 330.695 237.903 330.506C237.903 330.317 238.06 330.164 238.253 330.164H242.447C242.64 330.164 242.796 330.317 242.796 330.506C242.796 330.695 242.64 330.848 242.447 330.848ZM234.059 330.848H229.864C229.672 330.848 229.515 330.695 229.515 330.506C229.515 330.317 229.672 330.164 229.864 330.164H234.059C234.251 330.164 234.408 330.317 234.408 330.506C234.408 330.695 234.251 330.848 234.059 330.848ZM225.67 330.848H221.476C221.283 330.848 221.127 330.695 221.127 330.506C221.127 330.317 221.283 330.164 221.476 330.164H225.67C225.863 330.164 226.02 330.317 226.02 330.506C226.02 330.695 225.863 330.848 225.67 330.848ZM217.282 330.848H213.088C212.895 330.848 212.739 330.695 212.739 330.506C212.739 330.317 212.895 330.164 213.088 330.164H217.282C217.475 330.164 217.632 330.317 217.632 330.506C217.632 330.695 217.475 330.848 217.282 330.848ZM208.894 330.848H204.7C204.507 330.848 204.35 330.695 204.35 330.506C204.35 330.317 204.507 330.164 204.7 330.164H208.894C209.087 330.164 209.244 330.317 209.244 330.506C209.244 330.695 209.087 330.848 208.894 330.848ZM200.506 330.848H196.312C196.119 330.848 195.962 330.695 195.962 330.506C195.962 330.317 196.119 330.164 196.312 330.164H200.506C200.699 330.164 200.855 330.317 200.855 330.506C200.855 330.695 200.699 330.848 200.506 330.848ZM192.118 330.848H187.924C187.731 330.848 187.574 330.695 187.574 330.506C187.574 330.317 187.731 330.164 187.924 330.164H192.118C192.311 330.164 192.467 330.317 192.467 330.506C192.467 330.695 192.311 330.848 192.118 330.848ZM183.73 330.848H179.536C179.343 330.848 179.186 330.695 179.186 330.506C179.186 330.317 179.343 330.164 179.536 330.164H183.73C183.923 330.164 184.079 330.317 184.079 330.506C184.079 330.695 183.923 330.848 183.73 330.848ZM175.341 330.848H171.147C170.954 330.848 170.798 330.695 170.798 330.506C170.798 330.317 170.954 330.164 171.147 330.164H175.341C175.534 330.164 175.691 330.317 175.691 330.506C175.691 330.695 175.534 330.848 175.341 330.848ZM166.953 330.848H162.759C162.566 330.848 162.41 330.695 162.41 330.506C162.41 330.317 162.566 330.164 162.759 330.164H166.953C167.146 330.164 167.303 330.317 167.303 330.506C167.303 330.695 167.146 330.848 166.953 330.848Z" fill="#121212"/>
<path d="M256.564 411.68H166.517V395.724H256.564V411.68ZM167.915 410.312H255.166V397.092H167.915V410.312Z" fill="#121212"/>
<path d="M142.618 404.386H121.822C120.04 404.386 118.589 402.968 118.589 401.223V380.879C118.589 379.136 120.04 377.716 121.822 377.716H142.618C144.4 377.716 145.852 379.134 145.852 380.879V401.223C145.85 402.968 144.4 404.386 142.618 404.386ZM121.822 379.085C120.81 379.085 119.987 379.891 119.987 380.881V401.224C119.987 402.214 120.81 403.02 121.822 403.02H142.618C143.63 403.02 144.454 402.214 144.454 401.224V380.881C144.454 379.891 143.63 379.085 142.618 379.085H121.822Z" fill="#121212"/>
<path d="M468.591 167.316H447.796C446.013 167.316 444.562 165.897 444.562 164.153V143.808C444.562 142.064 446.012 140.645 447.796 140.645H468.591C470.374 140.645 471.825 142.064 471.825 143.808V164.153C471.823 165.897 470.374 167.316 468.591 167.316ZM447.796 142.014C446.783 142.014 445.96 142.819 445.96 143.809V164.154C445.96 165.144 446.783 165.95 447.796 165.95H468.591C469.603 165.95 470.427 165.144 470.427 164.154V143.809C470.427 142.819 469.603 142.014 468.591 142.014H447.796Z" fill="#121212"/>
<path d="M303.581 258.57H299.037C298.844 258.57 298.688 258.417 298.688 258.228C298.688 258.039 298.844 257.886 299.037 257.886H302.882V255.887C302.882 255.698 303.039 255.545 303.231 255.545C303.424 255.545 303.581 255.698 303.581 255.887V258.57ZM294.843 258.57H290.649C290.456 258.57 290.3 258.417 290.3 258.228C290.3 258.039 290.456 257.886 290.649 257.886H294.843C295.036 257.886 295.193 258.039 295.193 258.228C295.193 258.417 295.036 258.57 294.843 258.57ZM286.455 258.57H282.261C282.068 258.57 281.912 258.417 281.912 258.228C281.912 258.039 282.068 257.886 282.261 257.886H286.455C286.648 257.886 286.805 258.039 286.805 258.228C286.805 258.417 286.648 258.57 286.455 258.57ZM278.067 258.57H273.873C273.68 258.57 273.523 258.417 273.523 258.228C273.523 258.039 273.68 257.886 273.873 257.886H278.067C278.26 257.886 278.417 258.039 278.417 258.228C278.417 258.417 278.26 258.57 278.067 258.57ZM269.679 258.57H265.485C265.292 258.57 265.135 258.417 265.135 258.228C265.135 258.039 265.292 257.886 265.485 257.886H269.679C269.872 257.886 270.028 258.039 270.028 258.228C270.028 258.417 269.872 258.57 269.679 258.57ZM261.291 258.57H257.097C256.904 258.57 256.747 258.417 256.747 258.228C256.747 258.039 256.904 257.886 257.097 257.886H261.291C261.484 257.886 261.64 258.039 261.64 258.228C261.64 258.417 261.484 258.57 261.291 258.57ZM252.903 258.57H248.709C248.516 258.57 248.359 258.417 248.359 258.228C248.359 258.039 248.516 257.886 248.709 257.886H252.903C253.096 257.886 253.252 258.039 253.252 258.228C253.252 258.417 253.096 258.57 252.903 258.57ZM244.514 258.57H240.32C240.127 258.57 239.971 258.417 239.971 258.228C239.971 258.039 240.127 257.886 240.32 257.886H244.514C244.707 257.886 244.864 258.039 244.864 258.228C244.864 258.417 244.709 258.57 244.514 258.57ZM236.126 258.57H231.932C231.739 258.57 231.583 258.417 231.583 258.228C231.583 258.039 231.739 257.886 231.932 257.886H236.126C236.319 257.886 236.476 258.039 236.476 258.228C236.476 258.417 236.321 258.57 236.126 258.57ZM227.738 258.57H223.544C223.351 258.57 223.195 258.417 223.195 258.228C223.195 258.039 223.351 257.886 223.544 257.886H227.738C227.931 257.886 228.088 258.039 228.088 258.228C228.088 258.417 227.932 258.57 227.738 258.57ZM219.35 258.57H216.1V256.962C216.1 256.773 216.256 256.62 216.449 256.62C216.642 256.62 216.799 256.773 216.799 256.962V257.886H219.35C219.543 257.886 219.7 258.039 219.7 258.228C219.7 258.417 219.544 258.57 219.35 258.57ZM216.451 253.202C216.258 253.202 216.101 253.049 216.101 252.86V248.757C216.101 248.568 216.258 248.415 216.451 248.415C216.643 248.415 216.8 248.568 216.8 248.757V252.86C216.8 253.047 216.643 253.202 216.451 253.202ZM303.231 252.127C303.039 252.127 302.882 251.974 302.882 251.785V247.682C302.882 247.493 303.039 247.34 303.231 247.34C303.424 247.34 303.581 247.493 303.581 247.682V251.785C303.581 251.972 303.424 252.127 303.231 252.127ZM216.451 244.995C216.258 244.995 216.101 244.842 216.101 244.654V240.55C216.101 240.362 216.258 240.209 216.451 240.209C216.643 240.209 216.8 240.362 216.8 240.55V244.654C216.8 244.841 216.643 244.995 216.451 244.995ZM303.231 243.921C303.039 243.921 302.882 243.767 302.882 243.579V239.475C302.882 239.287 303.039 239.134 303.231 239.134C303.424 239.134 303.581 239.287 303.581 239.475V243.579C303.581 243.766 303.424 243.921 303.231 243.921ZM216.451 236.789C216.258 236.789 216.101 236.636 216.101 236.447V232.344C216.101 232.155 216.258 232.002 216.451 232.002C216.643 232.002 216.8 232.155 216.8 232.344V236.447C216.8 236.635 216.643 236.789 216.451 236.789ZM303.231 235.714C303.039 235.714 302.882 235.561 302.882 235.372V231.269C302.882 231.08 303.039 230.927 303.231 230.927C303.424 230.927 303.581 231.08 303.581 231.269V235.372C303.581 235.56 303.424 235.714 303.231 235.714ZM216.451 228.583C216.258 228.583 216.101 228.43 216.101 228.241V224.138C216.101 223.949 216.258 223.796 216.451 223.796C216.643 223.796 216.8 223.949 216.8 224.138V228.241C216.8 228.428 216.643 228.583 216.451 228.583ZM303.231 227.508C303.039 227.508 302.882 227.355 302.882 227.166V223.063C302.882 222.874 303.039 222.721 303.231 222.721C303.424 222.721 303.581 222.874 303.581 223.063V227.166C303.581 227.353 303.424 227.508 303.231 227.508ZM216.451 220.377C216.258 220.377 216.101 220.224 216.101 220.035V215.932C216.101 215.743 216.258 215.59 216.451 215.59C216.643 215.59 216.8 215.743 216.8 215.932V220.035C216.8 220.222 216.643 220.377 216.451 220.377ZM303.231 219.302C303.039 219.302 302.882 219.148 302.882 218.96V214.857C302.882 214.668 303.039 214.515 303.231 214.515C303.424 214.515 303.581 214.668 303.581 214.857V218.96C303.581 219.147 303.424 219.302 303.231 219.302ZM216.451 212.17C216.258 212.17 216.101 212.017 216.101 211.829V207.725C216.101 207.537 216.258 207.383 216.451 207.383C216.643 207.383 216.8 207.537 216.8 207.725V211.829C216.8 212.017 216.643 212.17 216.451 212.17ZM303.231 211.095C303.039 211.095 302.882 210.942 302.882 210.753V206.65C302.882 206.462 303.039 206.308 303.231 206.308C303.424 206.308 303.581 206.462 303.581 206.65V210.753C303.581 210.942 303.424 211.095 303.231 211.095ZM216.451 203.964C216.258 203.964 216.101 203.811 216.101 203.622V199.519C216.101 199.33 216.258 199.177 216.451 199.177C216.643 199.177 216.8 199.33 216.8 199.519V203.622C216.8 203.811 216.643 203.964 216.451 203.964ZM303.231 202.889C303.039 202.889 302.882 202.736 302.882 202.547V198.444C302.882 198.255 303.039 198.102 303.231 198.102C303.424 198.102 303.581 198.255 303.581 198.444V202.547C303.581 202.736 303.424 202.889 303.231 202.889ZM216.451 195.758C216.258 195.758 216.101 195.605 216.101 195.416V191.313C216.101 191.124 216.258 190.971 216.451 190.971C216.643 190.971 216.8 191.124 216.8 191.313V195.416C216.8 195.605 216.643 195.758 216.451 195.758ZM303.231 194.683C303.039 194.683 302.882 194.53 302.882 194.341V190.238C302.882 190.049 303.039 189.896 303.231 189.896C303.424 189.896 303.581 190.049 303.581 190.238V194.341C303.581 194.53 303.424 194.683 303.231 194.683ZM216.451 187.552C216.258 187.552 216.101 187.398 216.101 187.21V185.697H219.448C219.641 185.697 219.797 185.85 219.797 186.039C219.797 186.228 219.641 186.381 219.448 186.381H216.8V187.21C216.8 187.398 216.643 187.552 216.451 187.552ZM303.231 186.477C303.138 186.477 303.053 186.441 302.99 186.382H299.134C298.941 186.382 298.784 186.229 298.784 186.04C298.784 185.852 298.941 185.698 299.134 185.698H303.581V186.135C303.581 186.323 303.424 186.477 303.231 186.477ZM294.941 186.381H290.747C290.554 186.381 290.398 186.228 290.398 186.039C290.398 185.85 290.554 185.697 290.747 185.697H294.941C295.134 185.697 295.291 185.85 295.291 186.039C295.291 186.228 295.134 186.381 294.941 186.381ZM286.553 186.381H282.359C282.166 186.381 282.009 186.228 282.009 186.039C282.009 185.85 282.166 185.697 282.359 185.697H286.553C286.746 185.697 286.903 185.85 286.903 186.039C286.903 186.228 286.746 186.381 286.553 186.381ZM278.165 186.381H273.971C273.778 186.381 273.621 186.228 273.621 186.039C273.621 185.85 273.778 185.697 273.971 185.697H278.165C278.358 185.697 278.514 185.85 278.514 186.039C278.514 186.228 278.358 186.381 278.165 186.381ZM269.777 186.381H265.583C265.39 186.381 265.233 186.228 265.233 186.039C265.233 185.85 265.39 185.697 265.583 185.697H269.777C269.97 185.697 270.126 185.85 270.126 186.039C270.126 186.228 269.97 186.381 269.777 186.381ZM261.389 186.381H257.195C257.002 186.381 256.845 186.228 256.845 186.039C256.845 185.85 257.002 185.697 257.195 185.697H261.389C261.582 185.697 261.738 185.85 261.738 186.039C261.738 186.228 261.582 186.381 261.389 186.381ZM253 186.381H248.806C248.613 186.381 248.457 186.228 248.457 186.039C248.457 185.85 248.613 185.697 248.806 185.697H253C253.193 185.697 253.35 185.85 253.35 186.039C253.35 186.228 253.193 186.381 253 186.381ZM244.612 186.381H240.418C240.225 186.381 240.069 186.228 240.069 186.039C240.069 185.85 240.225 185.697 240.418 185.697H244.612C244.805 185.697 244.962 185.85 244.962 186.039C244.962 186.228 244.805 186.381 244.612 186.381ZM236.224 186.381H232.03C231.837 186.381 231.681 186.228 231.681 186.039C231.681 185.85 231.837 185.697 232.03 185.697H236.224C236.417 185.697 236.574 185.85 236.574 186.039C236.574 186.228 236.417 186.381 236.224 186.381ZM227.836 186.381H223.642C223.449 186.381 223.292 186.228 223.292 186.039C223.292 185.85 223.449 185.697 223.642 185.697H227.836C228.029 185.697 228.186 185.85 228.186 186.039C228.186 186.228 228.029 186.381 227.836 186.381Z" fill="#121212"/>
<path d="M478.348 3.76123H26.3496V4.44509H478.348V3.76123Z" fill="#121212"/>
<path d="M26.6994 0H26.0004V8.20627H26.6994V0Z" fill="#121212"/>
<path d="M77.3229 0H76.6239V8.20627H77.3229V0Z" fill="#121212"/>
<path d="M148.534 0H147.835V8.20627H148.534V0Z" fill="#121212"/>
<path d="M240.071 0H239.372V8.20627H240.071V0Z" fill="#121212"/>
<path d="M366.156 0H365.457V8.20627H366.156V0Z" fill="#121212"/>
<path d="M478.698 0H477.999V8.20627H478.698V0Z" fill="#121212"/>
<path d="M4.54362 24.3909H3.8446V410.996H4.54362V24.3909Z" fill="#121212"/>
<path d="M8.38815 410.654H0V411.338H8.38815V410.654Z" fill="#121212"/>
<path d="M8.38815 255.149H0V255.833H8.38815V255.149Z" fill="#121212"/>
<path d="M8.38815 184.552H0V185.236H8.38815V184.552Z" fill="#121212"/>
<path d="M8.38815 24.0488H0V24.7327H8.38815V24.0488Z" fill="#121212"/>
<path d="M501.155 24.3904H500.456V315.196H501.155V24.3904Z" fill="#121212"/>
<path d="M504.999 314.854H496.611V315.538H504.999V314.854Z" fill="#121212"/>
<path d="M504.999 238.928H496.611V239.612H504.999V238.928Z" fill="#121212"/>
<path d="M504.65 169.261H496.262V169.945H504.65V169.261Z" fill="#121212"/>
<path d="M504.999 24.0486H496.611V24.7324H504.999V24.0486Z" fill="#121212"/>
<path d="M324.856 426.555H26.3496V427.239H324.856V426.555Z" fill="#121212"/>
<path d="M26.6994 422.794H26.0004V431H26.6994V422.794Z" fill="#121212"/>
<path d="M325.205 422.794H324.506V431H325.205V422.794Z" fill="#121212"/>
<path d="M342.138 427.192L341.786 426.601L496.436 338.582L496.788 339.173L342.138 427.192Z" fill="#121212"/>
<path d="M343.952 430.828L339.365 422.963L339.972 422.624L344.559 430.489L343.952 430.828Z" fill="#121212"/>
<path d="M498.603 342.98L494.014 335.116L494.621 334.776L499.208 342.641L498.603 342.98Z" fill="#121212"/>
</svg>
