<svg width="38" height="37" viewBox="0 0 38 37" fill="none" xmlns="http://www.w3.org/2000/svg">
<path d="M33.4502 36.0694H4.3252C2.33441 36.0694 0.714111 34.4842 0.714111 32.5366V4.04305C0.714111 2.09543 2.33441 0.510254 4.3252 0.510254H33.4502C35.441 0.510254 37.0613 2.09543 37.0613 4.04305V32.5366C37.0613 34.4842 35.441 36.0694 33.4502 36.0694ZM4.32381 1.8766C3.10334 1.8766 2.11073 2.84767 2.11073 4.04169V32.5352C2.11073 33.7292 3.10334 34.7003 4.32381 34.7003H33.4488C34.6693 34.7003 35.6619 33.7292 35.6619 32.5352V4.04169C35.6619 2.84767 34.6693 1.8766 33.4488 1.8766H4.32381Z" fill="#121212"/>
</svg>
